<?xml version="1.0" standalone="no"?>
  <!DOCTYPE svg PUBLIC "-//W3C//DTD SVG 1.1//EN" "http://www.w3.org/Graphics/SVG/1.1/DTD/svg11.dtd" >
  <svg>
  <metadata>
  Created by font-carrier
  </metadata>
  <defs>
  <font id="FranklinGothic-Heavy" horiz-adv-x="2379" vert-adv-y="2379" >
    <font-face
      
      font-family="Franklin Gothic Heavy"
      
      font-weight="400"
      
      font-stretch="normal"
      
      units-per-em="2048"
      
      ascent="1877"
      
      descent="-445"
      
    />
      <missing-glyph />

      

      
      <glyph glyph-name="uni21" unicode="&#x21;" d="M563 1365L449 460L196 460L89 1365L563 1365M516 365L516 0L130 0L130 365L516 365Z"  horiz-adv-x="646" vert-adv-y="2048"  />

      
      <glyph glyph-name="uni22" unicode="&#x22;" d="M328 789L132 789L83 1365L378 1365L328 789M712 789L516 789L467 1365L762 1365L712 789Z"  horiz-adv-x="845" vert-adv-y="2048"  />

      
      <glyph glyph-name="uni23" unicode="&#x23;" d="M1107 621L1069 408L870 408L796 0L567 0L641 408L481 408L407 0L181 0L255 408L31 408L70 621L294 621L321 772L100 772L139 984L360 984L429 1365L654 1365L585 984L746 984L815 1365L1044 1365L974 984L1169 984L1131 772L936 772L909 621L1107 621M707 772L546 772L519 621L680 621L707 772Z"  horiz-adv-x="1201" vert-adv-y="2048"  />

      
      <glyph glyph-name="uni24" unicode="&#x24;" d="M488 1335L488 1506L680 1506L680 1339Q1003 1303 1102 1032L789 934Q741 1061 593 1061Q469 1061 469 981Q469 952 490 931.50Q511 911 606 890Q823 843 917 805.50Q1011 768 1073.50 678.50Q1136 589 1136 467Q1136 296 1014.50 180.50Q893 65 680 41L680-132L488-132L488 41Q126 84 33 422L383 487Q428 333 610 333Q752 333 752 411Q752 452 719 475Q686 498 602 515Q272 582 183.50 686Q95 790 95 925Q95 1074 192 1189.50Q289 1305 488 1335Z"  horiz-adv-x="1201" vert-adv-y="2048"  />

      
      <glyph glyph-name="uni25" unicode="&#x25;" d="M337 673Q210 673 135.50 769.50Q61 866 61 1026Q61 1189 137.50 1282.50Q214 1376 341 1376Q473 1376 545 1276.50Q617 1177 617 1020Q617 860 540 766.50Q463 673 337 673M338 822Q409 822 409 1022Q409 1113 395.50 1170Q382 1227 339 1227Q270 1227 270 1034Q270 915 284.50 868.50Q299 822 338 822M1234 1365L405 0L216 0L1051 1365L1234 1365M1114-10Q988-10 913.50 86.50Q839 183 839 343Q839 506 915 600Q991 694 1118 694Q1241 694 1317.50 600.50Q1394 507 1394 337Q1394 178 1317 84Q1240-10 1114-10M1116 139Q1187 139 1187 339Q1187 430 1174 487.50Q1161 545 1118 545Q1048 545 1048 353Q1048 231 1062.50 185Q1077 139 1116 139Z"  horiz-adv-x="1455" vert-adv-y="2048"  />

      
      <glyph glyph-name="uni26" unicode="&#x26;" d="M1120 798L1474 756Q1408 478 1249 334Q1294 296 1378 296Q1416 296 1474 302L1474 8Q1391-14 1312-14Q1126-14 991 96Q854-21 599-21Q360-21 205.50 90.50Q51 202 51 401Q51 666 367 776Q256 917 256 1042Q256 1200 375 1293Q494 1386 702 1386Q898 1386 1016.50 1297Q1135 1208 1135 1051Q1135 921 1057 833.50Q979 746 877 715L1017 566Q1085 633 1120 798M716 912Q816 951 816 1039Q816 1083 788 1112Q760 1141 712 1141Q670 1141 643.50 1116Q617 1091 617 1056Q617 991 716 912M551 578Q452 535 452 428Q452 359 498 316.50Q544 274 625 274Q721 274 779 329L551 578Z"  horiz-adv-x="1515" vert-adv-y="2048"  />

      
      <glyph glyph-name="uni27" unicode="&#x27;" d="M328 789L133 789L83 1365L378 1365L328 789Z"  horiz-adv-x="461" vert-adv-y="2048"  />

      
      <glyph glyph-name="uni28" unicode="&#x28;" d="M597 1365Q336 982 336 524Q336 83 597-321L327-321Q11 84 11 528Q11 994 327 1365L597 1365Z"  horiz-adv-x="601" vert-adv-y="2048"  />

      
      <glyph glyph-name="uni29" unicode="&#x29;" d="M4-321Q265 62 265 521Q265 962 4 1365L274 1365Q590 960 590 517Q590 51 274-321L4-321Z"  horiz-adv-x="601" vert-adv-y="2048"  />

      
      <glyph glyph-name="uni2a" unicode="&#x2a;" d="M737 1393L700 1060L1019 1202L1099 943L766 905L992 666L772 504L600 816L429 504L209 666L435 905L102 943L182 1202L501 1060L464 1393L737 1393Z"  horiz-adv-x="1201" vert-adv-y="2048"  />

      
      <glyph glyph-name="uni2b" unicode="&#x2b;" d="M1098 816L1098 563L728 563L728 179L473 179L473 563L103 563L103 816L473 816L473 1200L728 1200L728 816L1098 816Z"  horiz-adv-x="1201" vert-adv-y="2048"  />

      
      <glyph glyph-name="uni2c" unicode="&#x2c;" d="M472 363L472 28L253-351L96-351L253 0L92 0L92 363L472 363Z"  horiz-adv-x="563" vert-adv-y="2048"  />

      
      <glyph glyph-name="uni2d" unicode="&#x2d;" d="M535 673L535 359L28 359L28 673L535 673Z"  horiz-adv-x="563" vert-adv-y="2048"  />

      
      <glyph glyph-name="uni2e" unicode="&#x2e;" d="M472 365L472 0L92 0L92 365L472 365Z"  horiz-adv-x="563" vert-adv-y="2048"  />

      
      <glyph glyph-name="uni2f" unicode="&#x2f;" d="M999 1365L76-321L-125-321L795 1365L999 1365Z"  horiz-adv-x="1047" vert-adv-y="2048"  />

      
      <glyph glyph-name="uni30" unicode="&#x30;" d="M597-21Q350-21 206 173.50Q62 368 62 685Q62 1010 209.50 1198Q357 1386 604 1386Q863 1386 1001 1185.50Q1139 985 1139 673Q1139 355 990.50 167Q842-21 597-21M601 269Q687 269 716 378.50Q745 488 745 678Q745 939 706.50 1019Q668 1099 602 1099Q522 1099 491.50 993.50Q461 888 461 703Q461 452 491.50 360.50Q522 269 601 269Z"  horiz-adv-x="1201" vert-adv-y="2048"  />

      
      <glyph glyph-name="uni31" unicode="&#x31;" d="M858 304L1180 304L1180 0L130 0L130 304L467 304L467 953Q275 868 167 853L167 1160Q458 1223 562 1386L858 1386L858 304Z"  horiz-adv-x="1201" vert-adv-y="2048"  />

      
      <glyph glyph-name="uni32" unicode="&#x32;" d="M1116 335L1101 0L61 0L61 314L293 477Q344 512 483.50 627.50Q623 743 665.50 805Q708 867 708 935Q708 1000 671 1039.50Q634 1079 574 1079Q424 1079 406 843L61 910Q99 1151 249.50 1268.50Q400 1386 605 1386Q827 1386 967.50 1267Q1108 1148 1108 950Q1108 818 1031.50 699Q955 580 584 335L1116 335Z"  horiz-adv-x="1201" vert-adv-y="2048"  />

      
      <glyph glyph-name="uni33" unicode="&#x33;" d="M25 417L381 461Q416 274 581 274Q656 274 703 313Q750 352 750 418Q750 462 724.50 495.50Q699 529 670 542.50Q641 556 570 556L404 556L404 841L544 841Q656 841 688 881Q720 921 720 964Q720 1018 680 1054Q640 1090 575 1090Q435 1090 404 934L74 986Q119 1178 264.50 1282Q410 1386 609 1386Q833 1386 969 1281Q1105 1176 1105 1001Q1105 896 1047.50 818Q990 740 901 713Q1147 638 1147 392Q1147 196 997.50 87.50Q848-21 610-21Q132-21 25 417Z"  horiz-adv-x="1201" vert-adv-y="2048"  />

      
      <glyph glyph-name="uni34" unicode="&#x34;" d="M1178 300L986 300L986 0L610 0L610 300L52 300L52 597L566 1386L986 1386L986 597L1178 597L1178 300M610 597L610 1005L351 597L610 597Z"  horiz-adv-x="1201" vert-adv-y="2048"  />

      
      <glyph glyph-name="uni35" unicode="&#x35;" d="M1050 1028L478 1028L462 835Q573 912 708 912Q886 912 1019 790Q1152 668 1152 464Q1152 249 997 114Q842-21 601-21Q391-21 237.50 89.50Q84 200 49 398L401 441Q436 292 592 292Q671 292 715.50 340Q760 388 760 457Q760 535 709 579Q658 623 588 623Q484 623 428 537L115 581L175 1365L1086 1365L1050 1028Z"  horiz-adv-x="1201" vert-adv-y="2048"  />

      
      <glyph glyph-name="uni36" unicode="&#x36;" d="M1115 979L766 937Q750 1101 633 1101Q464 1101 459 746Q539 872 734 872Q919 872 1034.50 753Q1150 634 1150 447Q1150 251 1003.50 115Q857-21 626-21Q457-21 325 60.50Q193 142 126 301Q59 460 59 649Q59 971 206 1178.50Q353 1386 625 1386Q818 1386 952.50 1280.50Q1087 1175 1115 979M614 257Q683 257 724 304Q765 351 765 419Q765 486 724.50 536Q684 586 618 586Q550 586 506 536.50Q462 487 462 418Q462 351 504 304Q546 257 614 257Z"  horiz-adv-x="1201" vert-adv-y="2048"  />

      
      <glyph glyph-name="uni37" unicode="&#x37;" d="M1102 1365L1102 1109Q953 934 846 643Q739 352 739 86Q739 60 743 0L292 0Q292 241 409.50 526Q527 811 725 1023L92 1023L121 1365L1102 1365Z"  horiz-adv-x="1201" vert-adv-y="2048"  />

      
      <glyph glyph-name="uni38" unicode="&#x38;" d="M936 742Q1157 630 1157 405Q1157 201 998.50 90Q840-21 581-21Q322-21 183 84Q44 189 44 359Q44 574 257 668Q86 763 86 966Q86 1145 225.50 1265.50Q365 1386 612 1386Q833 1386 972.50 1286Q1112 1186 1112 1021Q1112 946 1080.50 881.50Q1049 817 936 742M681 847Q766 889 766 973Q766 1035 719 1075.50Q672 1116 586 1116Q525 1116 490.50 1087Q456 1058 456 1016Q456 938 556 898L681 847M494 531Q399 473 399 389Q399 327 452 285Q505 243 603 243Q682 243 724 272.50Q766 302 766 349Q766 427 649 472L494 531Z"  horiz-adv-x="1201" vert-adv-y="2048"  />

      
      <glyph glyph-name="uni39" unicode="&#x39;" d="M91 344L441 400Q463 274 572 274Q658 274 703.50 354Q749 434 749 574Q749 590 748 615Q658 483 482 483Q297 483 176 605Q55 727 55 916Q55 1123 197.50 1254.50Q340 1386 580 1386Q856 1386 997 1203.50Q1138 1021 1138 722Q1138 393 991.50 186Q845-21 555-21Q365-21 241.50 76.50Q118 174 91 344M575 773Q636 773 682 815.50Q728 858 728 936Q728 1015 686 1061Q644 1107 580 1107Q520 1107 477.50 1064Q435 1021 435 935Q435 859 474.50 816Q514 773 575 773Z"  horiz-adv-x="1201" vert-adv-y="2048"  />

      
      <glyph glyph-name="uni3a" unicode="&#x3a;" d="M472 1017L472 653L92 653L92 1017L472 1017M472 365L472 0L92 0L92 365L472 365Z"  horiz-adv-x="563" vert-adv-y="2048"  />

      
      <glyph glyph-name="uni3b" unicode="&#x3b;" d="M472 1017L472 653L92 653L92 1017L472 1017M472 363L472 28L253-351L96-351L253 0L92 0L92 363L472 363Z"  horiz-adv-x="563" vert-adv-y="2048"  />

      
      <glyph glyph-name="uni037E" unicode="&#x037E;" d="M472 1017L472 653L92 653L92 1017L472 1017M472 363L472 28L253-351L96-351L253 0L92 0L92 363L472 363Z"  horiz-adv-x="563" vert-adv-y="2048"  />

      
      <glyph glyph-name="uni3c" unicode="&#x3c;" d="M1024 1261L1024 981L435 684L1024 387L1024 109L137 567L137 803L1024 1261Z"  horiz-adv-x="1201" vert-adv-y="2048"  />

      
      <glyph glyph-name="uni3d" unicode="&#x3d;" d="M1098 993L1098 739L103 739L103 993L1098 993M1098 613L1098 359L103 359L103 613L1098 613Z"  horiz-adv-x="1201" vert-adv-y="2048"  />

      
      <glyph glyph-name="uni3e" unicode="&#x3e;" d="M177 109L177 389L766 685L177 983L177 1261L1064 803L1064 566L177 109Z"  horiz-adv-x="1201" vert-adv-y="2048"  />

      
      <glyph glyph-name="uni3f" unicode="&#x3f;" d="M388 877L21 917Q105 1386 566 1386Q798 1386 932 1263.50Q1066 1141 1066 960Q1066 880 1039.50 814Q1013 748 971.50 705.50Q930 663 837 595Q766 543 746.50 519.50Q727 496 720 451L388 451Q388 572 409.50 625.50Q431 679 498 739Q599 830 624 874.50Q649 919 649 978Q649 1040 616 1073.50Q583 1107 534 1107Q389 1107 388 877M758 365L758 0L375 0L375 365L758 365Z"  horiz-adv-x="1119" vert-adv-y="2048"  />

      
      <glyph glyph-name="uni40" unicode="&#x40;" d="M1134 1030L1079 581Q1074 535 1074 501Q1074 459 1113 459Q1185 459 1252 550Q1319 641 1319 778Q1319 978 1173 1110Q1027 1242 815 1242Q585 1242 427 1081.50Q269 921 269 681Q269 460 416.50 296Q564 132 833 132Q1041 132 1261 247L1327 83Q1086-41 833-41Q482-41 275 172.50Q68 386 68 682Q68 991 285.50 1198.50Q503 1406 812 1406Q1106 1406 1304 1223.50Q1502 1041 1502 782Q1502 578 1381 433.50Q1260 289 1094 289Q981 289 923 376Q846 285 738 285Q617 285 531 387.50Q445 490 445 657Q445 828 542 936.50Q639 1045 775 1045Q861 1045 933 986L945 1030L1134 1030M750 477Q819 477 869 544.50Q919 612 919 699Q919 769 878.50 811Q838 853 786 853Q726 853 685.50 797Q645 741 645 650Q645 576 674 526.50Q703 477 750 477Z"  horiz-adv-x="1570" vert-adv-y="2048"  />

      
      <glyph glyph-name="uni41" unicode="&#x41;" d="M872 0L795 269L429 269L347 0L7 0L429 1365L872 1365L1299 0L872 0M500 567L722 567L611 963L500 567Z"  horiz-adv-x="1306" vert-adv-y="2048"  />

      
      <glyph glyph-name="uni42" unicode="&#x42;" d="M119 0L119 1365L812 1365Q1028 1365 1127 1256Q1226 1147 1226 1007Q1226 905 1168.50 822.50Q1111 740 997 709Q1262 645 1262 391Q1262 239 1168.50 119.50Q1075 0 769 0L119 0M505 842L699 842Q772 842 802 879Q832 916 832 958Q832 1072 692 1072L505 1072L505 842M505 304L709 304Q785 304 820.50 341.50Q856 379 856 426Q856 473 821.50 512.50Q787 552 695 552L505 552L505 304Z"  horiz-adv-x="1316" vert-adv-y="2048"  />

      
      <glyph glyph-name="uni43" unicode="&#x43;" d="M870 521L1253 498Q1226 247 1067.50 113Q909-21 678-21Q400-21 229 163Q58 347 58 671Q58 992 220 1189Q382 1386 672 1386Q943 1386 1088.50 1236Q1234 1086 1253 838L862 817Q862 954 809.50 1015Q757 1076 686 1076Q488 1076 488 678Q488 455 539.50 375Q591 295 684 295Q850 295 870 521Z"  horiz-adv-x="1287" vert-adv-y="2048"  />

      
      <glyph glyph-name="uni44" unicode="&#x44;" d="M119 0L119 1365L647 1365Q991 1365 1162 1161Q1333 957 1333 689Q1333 383 1149.50 191.50Q966 0 673 0L119 0M538 314L647 314Q751 314 822.50 415Q894 516 894 690Q894 839 830.50 947Q767 1055 647 1055L538 1055L538 314Z"  horiz-adv-x="1391" vert-adv-y="2048"  />

      
      <glyph glyph-name="uni45" unicode="&#x45;" d="M1146 326L1146 0L119 0L119 1365L1146 1365L1146 1050L530 1050L530 852L1028 852L1028 549L530 549L530 326L1146 326Z"  horiz-adv-x="1193" vert-adv-y="2048"  />

      
      <glyph glyph-name="uni46" unicode="&#x46;" d="M972 511L527 511L527 0L119 0L119 1365L1106 1365L1106 1040L527 1040L527 818L972 818L972 511Z"  horiz-adv-x="1120" vert-adv-y="2048"  />

      
      <glyph glyph-name="uni47" unicode="&#x47;" d="M1298 765L1298 0L1093 0Q1068 85 1038 143Q911-21 662-21Q398-21 228 163.50Q58 348 58 663Q58 969 222.50 1177.50Q387 1386 712 1386Q956 1386 1105 1262Q1254 1138 1298 910L892 870Q862 1083 705 1083Q499 1083 499 691Q499 454 565 378.50Q631 303 725 303Q801 303 854.50 349Q908 395 909 475L683 475L683 765L1298 765Z"  horiz-adv-x="1400" vert-adv-y="2048"  />

      
      <glyph glyph-name="uni48" unicode="&#x48;" d="M1277 1365L1277 0L858 0L858 531L538 531L538 0L119 0L119 1365L538 1365L538 863L858 863L858 1365L1277 1365Z"  horiz-adv-x="1395" vert-adv-y="2048"  />

      
      <glyph glyph-name="uni49" unicode="&#x49;" d="M538 1365L538 0L119 0L119 1365L538 1365Z"  horiz-adv-x="657" vert-adv-y="2048"  />

      
      <glyph glyph-name="uni4a" unicode="&#x4a;" d="M747 1365L747 505Q747 307 711.50 203.50Q676 100 573 39.50Q470-21 294-21Q139-21 14 12L14 338Q102 313 178 313Q268 313 306 354.50Q344 396 344 505L344 1365L747 1365Z"  horiz-adv-x="852" vert-adv-y="2048"  />

      
      <glyph glyph-name="uni4b" unicode="&#x4b;" d="M1350 0L891 0L655 516L514 315L514 0L119 0L119 1365L514 1365L514 801L891 1365L1267 1365L922 866L1350 0Z"  horiz-adv-x="1343" vert-adv-y="2048"  />

      
      <glyph glyph-name="uni4c" unicode="&#x4c;" d="M1076 335L1076 0L119 0L119 1365L538 1365L538 335L1076 335Z"  horiz-adv-x="1103" vert-adv-y="2048"  />

      
      <glyph glyph-name="uni4d" unicode="&#x4d;" d="M1603 1365L1603 0L1214 0L1214 976L961 0L695 0L433 976L433 0L119 0L119 1365L666 1365L864 640L1053 1365L1603 1365Z"  horiz-adv-x="1722" vert-adv-y="2048"  />

      
      <glyph glyph-name="uni4e" unicode="&#x4e;" d="M1286 0L945 0L571 603Q499 719 426 885Q459 753 459 661L459 0L119 0L119 1365L515 1365L833 865Q928 716 977 603Q945 778 945 961L945 1365L1286 1365L1286 0Z"  horiz-adv-x="1405" vert-adv-y="2048"  />

      
      <glyph glyph-name="uni4f" unicode="&#x4f;" d="M709-21Q421-21 239.50 170Q58 361 58 681Q58 987 231.50 1186.50Q405 1386 713 1386Q998 1386 1177.50 1198Q1357 1010 1357 696Q1357 371 1176 175Q995-21 709-21M707 289Q813 289 859.50 381.50Q906 474 906 720Q906 1076 715 1076Q509 1076 509 670Q509 289 707 289Z"  horiz-adv-x="1415" vert-adv-y="2048"  />

      
      <glyph glyph-name="uni50" unicode="&#x50;" d="M544 496L544 0L119 0L119 1365L702 1365Q920 1365 1033.50 1315Q1147 1265 1213.50 1162Q1280 1059 1280 931Q1280 736 1144 616Q1008 496 781 496L544 496M538 789L678 789Q863 789 863 925Q863 1053 692 1053L538 1053L538 789Z"  horiz-adv-x="1317" vert-adv-y="2048"  />

      
      <glyph glyph-name="uni51" unicode="&#x51;" d="M849-7Q779-21 711-21Q416-21 237 174Q58 369 58 679Q58 988 231.50 1187Q405 1386 713 1386Q998 1386 1177.50 1198Q1357 1010 1357 696Q1357 315 1112 115Q1132 56 1239 56Q1287 56 1352 69L1352-240Q1241-251 1178-251Q1066-251 978.50-204.50Q891-158 849-7M707 289Q813 289 859.50 381.50Q906 474 906 720Q906 1076 715 1076Q509 1076 509 670Q509 289 707 289Z"  horiz-adv-x="1415" vert-adv-y="2048"  />

      
      <glyph glyph-name="uni52" unicode="&#x52;" d="M1334 0L869 0L670 522L538 522L538 0L119 0L119 1365L832 1365Q1068 1365 1198.50 1254.50Q1329 1144 1329 963Q1329 845 1281 754.50Q1233 664 1087 595L1334 0M538 814L717 814Q796 814 844 847Q892 880 892 944Q892 1075 731 1075L538 1075L538 814Z"  horiz-adv-x="1413" vert-adv-y="2048"  />

      
      <glyph glyph-name="uni53" unicode="&#x53;" d="M-22 395L367 465Q416 300 619 300Q777 300 777 384Q777 428 740.50 452.50Q704 477 610 496Q251 565 149 676Q47 787 47 937Q47 1130 193.50 1258Q340 1386 615 1386Q1032 1386 1166 1051L819 946Q765 1083 600 1083Q463 1083 463 998Q463 960 494 939Q525 918 614 899Q859 847 962 807Q1065 767 1134 670.50Q1203 574 1203 443Q1203 236 1035 107.50Q867-21 594-21Q95-21-22 395Z"  horiz-adv-x="1244" vert-adv-y="2048"  />

      
      <glyph glyph-name="uni54" unicode="&#x54;" d="M680 1038L680 0L283 0L283 1038L0 1038L0 1365L963 1365L963 1038L680 1038Z"  horiz-adv-x="963" vert-adv-y="2048"  />

      
      <glyph glyph-name="uni55" unicode="&#x55;" d="M1226 1365L1226 461Q1226 204 1073.50 91.50Q921-21 676-21Q418-21 261.50 87Q105 195 105 439L105 1365L531 1365L531 488Q531 390 572.50 345Q614 300 705 300Q781 300 829.50 332.50Q878 365 887.50 406Q897 447 897 566L897 1365L1226 1365Z"  horiz-adv-x="1331" vert-adv-y="2048"  />

      
      <glyph glyph-name="uni56" unicode="&#x56;" d="M1300 1365L876 0L449 0L7 1365L449 1365L664 621Q686 555 703 491L955 1365L1300 1365Z"  horiz-adv-x="1307" vert-adv-y="2048"  />

      
      <glyph glyph-name="uni57" unicode="&#x57;" d="M1829 1365L1467 0L1115 0L924 753L744 0L377 0L14 1365L408 1365L599 578L785 1365L1115 1365L1317 578L1508 1365L1829 1365Z"  horiz-adv-x="1843" vert-adv-y="2048"  />

      
      <glyph glyph-name="uni58" unicode="&#x58;" d="M1287 1365L891 731L1350 0L863 0L611 429L357 0L-27 0L413 707L-9 1365L479 1365L691 998L911 1365L1287 1365Z"  horiz-adv-x="1322" vert-adv-y="2048"  />

      
      <glyph glyph-name="uni59" unicode="&#x59;" d="M1252 1365L825 578L825 0L418 0L418 578L-41 1365L418 1365L657 916L886 1365L1252 1365Z"  horiz-adv-x="1211" vert-adv-y="2048"  />

      
      <glyph glyph-name="uni5a" unicode="&#x5a;" d="M1170 322L1170 0L34 0L34 261L639 1049L80 1049L80 1365L1151 1365L1151 1100L564 322L1170 322Z"  horiz-adv-x="1204" vert-adv-y="2048"  />

      
      <glyph glyph-name="uni5b" unicode="&#x5b;" d="M547-156L547-321L76-321L76 1365L547 1365L547 1200L374 1200L374-156L547-156Z"  horiz-adv-x="601" vert-adv-y="2048"  />

      
      <glyph glyph-name="uni5c" unicode="&#x5c;" d="M48 1365L252 1365L1172-321L971-321L48 1365Z"  horiz-adv-x="1047" vert-adv-y="2048"  />

      
      <glyph glyph-name="uni5d" unicode="&#x5d;" d="M54 1200L54 1365L525 1365L525-321L54-321L54-156L227-156L227 1200L54 1200Z"  horiz-adv-x="601" vert-adv-y="2048"  />

      
      <glyph glyph-name="uni5e" unicode="&#x5e;" d="M296 685L9 685L332 1374L692 1374L1015 685L728 685L512 1155L296 685Z"  horiz-adv-x="1024" vert-adv-y="2048"  />

      
      <glyph glyph-name="uni5f" unicode="&#x5f;" d="M0-94L1024-94L1024-333L0-333L0-94Z"  horiz-adv-x="1024" vert-adv-y="2048"  />

      
      <glyph glyph-name="uni60" unicode="&#x60;" d="M736 1298L684 1161L206 1327L279 1522L736 1298Z"  horiz-adv-x="1024" vert-adv-y="2048"  />

      
      <glyph glyph-name="uni61" unicode="&#x61;" d="M1130 0L750 0Q736 65 736 142Q628-21 409-21Q229-21 139.50 71Q50 163 50 282Q50 443 196.50 542.50Q343 642 716 662L716 685Q716 752 685.50 774Q655 796 596 796Q458 796 442 685L78 719Q156 1038 609 1038Q732 1038 835 1013.50Q938 989 998 937Q1058 885 1078.50 827Q1099 769 1099 604L1099 198Q1099 82 1130 0M716 476Q461 449 461 313Q461 221 562 221Q626 221 671 259Q716 297 716 427L716 476Z"  horiz-adv-x="1201" vert-adv-y="2048"  />

      
      <glyph glyph-name="uni62" unicode="&#x62;" d="M332 0L107 0L107 1365L500 1365L500 896Q582 1038 761 1038Q887 1038 975 972Q1063 906 1106 783.50Q1149 661 1149 526Q1149 280 1039 129.50Q929-21 711-21Q496-21 384 140Q352 80 332 0M500 379Q500 229 616 229Q679 229 712.50 283.50Q746 338 746 508Q746 693 708 740.50Q670 788 614 788Q570 788 535 754Q500 720 500 655L500 379Z"  horiz-adv-x="1203" vert-adv-y="2048"  />

      
      <glyph glyph-name="uni63" unicode="&#x63;" d="M718 410L1058 381Q1034 203 908.50 91Q783-21 575-21Q342-21 196.50 125.50Q51 272 51 501Q51 735 195.50 886.50Q340 1038 571 1038Q776 1038 905 923.50Q1034 809 1053 634L704 605Q682 766 582 766Q518 766 488.50 707.50Q459 649 459 504Q459 379 488.50 319Q518 259 591 259Q698 259 718 410Z"  horiz-adv-x="1071" vert-adv-y="2048"  />

      
      <glyph glyph-name="uni64" unicode="&#x64;" d="M1098 0L724 0L724 135Q641-21 450-21Q274-21 164.50 116.50Q55 254 55 516Q55 761 165 905Q275 1049 456 1049Q607 1049 705 934L705 1365L1098 1365L1098 0M705 654Q705 791 592 791Q513 791 488.50 704Q464 617 464 491Q464 244 590 244Q638 244 671.50 283Q705 322 705 402L705 654Z"  horiz-adv-x="1203" vert-adv-y="2048"  />

      
      <glyph glyph-name="uni65" unicode="&#x65;" d="M777 365L1149 340Q1116 190 980.50 84.50Q845-21 614-21Q357-21 204 127.50Q51 276 51 496Q51 724 202 881Q353 1038 605 1038Q849 1038 999.50 890Q1150 742 1150 487Q1150 466 1149 429L468 429Q470 333 502 286.50Q534 240 624 240Q754 240 777 365M751 629Q750 732 709.50 767.50Q669 803 609 803Q467 803 467 629L751 629Z"  horiz-adv-x="1201" vert-adv-y="2048"  />

      
      <glyph glyph-name="uni66" unicode="&#x66;" d="M535 758L535 0L159 0L159 758L7 758L7 1017L159 1017Q159 1143 170 1203.50Q181 1264 225 1319.50Q269 1375 343 1404.50Q417 1434 542 1434Q676 1434 799 1413L799 1152Q704 1165 657 1165Q610 1165 571 1146Q532 1127 532 1053L532 1017L792 1017L792 758L535 758Z"  horiz-adv-x="803" vert-adv-y="2048"  />

      
      <glyph glyph-name="uni67" unicode="&#x67;" d="M1165 1248L1155 975L1136 976Q1082 979 1059 979Q966 979 947 942Q1061 848 1061 715Q1061 559 937.50 480.50Q814 402 602 402Q597 402 550 404Q506 406 504 406Q407 406 407 356Q407 312 493 309L820 295Q999 287 1082.50 195Q1166 103 1166-20Q1166-166 1041.50-258.50Q917-351 557-351Q2-351 2-96Q2 43 149 98Q54 165 54 257Q54 407 249 483Q86 554 86 719Q86 870 218 954Q350 1038 580 1038Q685 1038 771 1017Q806 1256 1024 1256Q1074 1256 1165 1248M581 591Q697 591 697 714Q697 840 578 840Q460 840 460 712Q460 591 581 591M479 13Q457 14 435 14Q332 14 332-50Q332-109 410.50-126Q489-143 620-143Q744-143 779.50-122Q815-101 815-64Q815-38 799-20.50Q783-3 723 0L479 13Z"  horiz-adv-x="1166" vert-adv-y="2048"  />

      
      <glyph glyph-name="uni68" unicode="&#x68;" d="M1104 0L706 0L706 612Q706 696 687.50 727.50Q669 759 616 759Q575 759 544.50 734.50Q514 710 509 684Q504 658 504 575L504 0L105 0L105 1365L504 1365L504 897Q612 1038 786 1038Q874 1038 940.50 1007.50Q1007 977 1043 929Q1079 881 1091.50 836Q1104 791 1104 662L1104 0Z"  horiz-adv-x="1210" vert-adv-y="2048"  />

      
      <glyph glyph-name="uni69" unicode="&#x69;" d="M504 1408L504 1092L105 1092L105 1408L504 1408M504 1017L504 0L105 0L105 1017L504 1017Z"  horiz-adv-x="609" vert-adv-y="2048"  />

      
      <glyph glyph-name="uni6a" unicode="&#x6a;" d="M504 1406L504 1092L106 1092L106 1406L504 1406M504 1017L504 60Q504-85 478.50-165Q453-245 365-300Q277-355 116-355Q11-355-87-336L-87-45Q-43-64 1-64Q106-64 106 60L106 1017L504 1017Z"  horiz-adv-x="609" vert-adv-y="2048"  />

      
      <glyph glyph-name="uni6b" unicode="&#x6b;" d="M1156 1017L849 667L1191 0L779 0L588 407L479 280L479 0L105 0L105 1365L479 1365L479 814Q479 791 476 630Q512 681 549 723L804 1017L1156 1017Z"  horiz-adv-x="1175" vert-adv-y="2048"  />

      
      <glyph glyph-name="uni6c" unicode="&#x6c;" d="M498 1365L498 0L105 0L105 1365L498 1365Z"  horiz-adv-x="603" vert-adv-y="2048"  />

      
      <glyph glyph-name="uni6d" unicode="&#x6d;" d="M1646 0L1259 0L1259 636Q1259 700 1240.50 725.50Q1222 751 1175 751Q1063 751 1063 588L1063 0L680 0L680 636Q680 758 586 758Q489 758 489 636L489 0L105 0L105 1017L463 1017L463 880Q559 1038 742 1038Q939 1038 1028 880Q1127 1038 1332 1038Q1430 1038 1504.50 997Q1579 956 1612.50 891.50Q1646 827 1646 692L1646 0Z"  horiz-adv-x="1752" vert-adv-y="2048"  />

      
      <glyph glyph-name="uni6e" unicode="&#x6e;" d="M1098 0L699 0L699 640Q699 719 674.50 741Q650 763 613 763Q504 763 504 611L504 0L105 0L105 1017L475 1017L475 873Q557 1038 768 1038Q879 1038 955.50 995.50Q1032 953 1065 885.50Q1098 818 1098 651L1098 0Z"  horiz-adv-x="1203" vert-adv-y="2048"  />

      
      <glyph glyph-name="uni6f" unicode="&#x6f;" d="M602-21Q349-21 200 136.50Q51 294 51 506Q51 734 206.50 886Q362 1038 611 1038Q862 1038 1014.50 888Q1167 738 1167 512Q1167 284 1012.50 131.50Q858-21 602-21M608 221Q701 221 721.50 317.50Q742 414 742 519Q742 662 713 725Q684 788 609 788Q540 788 508 723Q476 658 476 509Q476 334 509 277.50Q542 221 608 221Z"  horiz-adv-x="1217" vert-adv-y="2048"  />

      
      <glyph glyph-name="uni70" unicode="&#x70;" d="M504-321L105-321L105 1017L472 1017L472 873Q549 1038 759 1038Q941 1038 1044 896.50Q1147 755 1147 511Q1147 267 1041.50 123Q936-21 763-21Q593-21 504 109L504-321M504 372Q504 304 535 266.50Q566 229 612 229Q684 229 711 295.50Q738 362 738 500Q738 659 707 723.50Q676 788 614 788Q577 788 540.50 759Q504 730 504 664L504 372Z"  horiz-adv-x="1201" vert-adv-y="2048"  />

      
      <glyph glyph-name="uni71" unicode="&#x71;" d="M1101-321L708-321L708 109Q643-21 468-21Q271-21 163 126Q55 273 55 505Q55 726 168 882Q281 1038 506 1038Q726 1038 814 879Q855 949 880 1017L1111 1017Q1101 971 1101 879L1101-321M708 644Q708 721 674 762.50Q640 804 595 804Q531 804 497 741Q463 678 463 506Q463 333 496.50 277Q530 221 586 221Q630 221 669 255Q708 289 708 371L708 644Z"  horiz-adv-x="1206" vert-adv-y="2048"  />

      
      <glyph glyph-name="uni72" unicode="&#x72;" d="M487 0L105 0L105 1017L437 1017L437 807Q494 1036 702 1036Q723 1036 760 1032L760 677Q718 687 685 687Q487 687 487 466L487 0Z"  horiz-adv-x="781" vert-adv-y="2048"  />

      
      <glyph glyph-name="uni73" unicode="&#x73;" d="M15 288L330 331Q357 221 544 221Q699 221 699 281Q699 307 669 321.50Q639 336 527 351Q217 394 140 485.50Q63 577 63 689Q63 845 193 941.50Q323 1038 534 1038Q904 1038 1006 771L704 714Q662 804 527 804Q463 804 431.50 786.50Q400 769 400 752Q400 702 496 691Q746 663 835 634Q924 605 987 528Q1050 451 1050 342Q1050 175 910.50 77Q771-21 526-21Q113-21 15 288Z"  horiz-adv-x="1085" vert-adv-y="2048"  />

      
      <glyph glyph-name="uni74" unicode="&#x74;" d="M733 1017L733 758L530 758L530 383Q530 306 559 291.50Q588 277 619 277Q667 277 733 294L733 10Q615-13 501-13Q317-13 230.50 66Q144 145 144 318L145 437L145 758L-7 758L-7 1017L145 1017L151 1348L530 1354L530 1017L733 1017Z"  horiz-adv-x="761" vert-adv-y="2048"  />

      
      <glyph glyph-name="uni75" unicode="&#x75;" d="M1094 1017L1094 0L725 0L725 167Q644-21 409-21Q264-21 184.50 59.50Q105 140 105 290L105 1017L504 1017L504 377Q504 317 520.50 292.50Q537 268 585 268Q636 268 668 304.50Q700 341 700 407L700 1017L1094 1017Z"  horiz-adv-x="1199" vert-adv-y="2048"  />

      
      <glyph glyph-name="uni76" unicode="&#x76;" d="M1044 1017L671 0L373 0L-7 1017L403 1017L548 585Q566 532 580 480Q585 498 595 526Q597 530 608 564L758 1017L1044 1017Z"  horiz-adv-x="1037" vert-adv-y="2048"  />

      
      <glyph glyph-name="uni77" unicode="&#x77;" d="M1507 1017L1185 0L898 0L765 551L626 0L342 0L14 1017L406 1017L540 519L668 1017L962 1017L1089 519L1230 1017L1507 1017Z"  horiz-adv-x="1521" vert-adv-y="2048"  />

      
      <glyph glyph-name="uni78" unicode="&#x78;" d="M1146 0L696 0L509 324L310 0L-14 0L343 539L30 1017L474 1017L579 827Q586 814 596 797Q601 789 610 771Q621 788 637 817Q639 822 648 838L752 1017L1081 1017L783 555L1146 0Z"  horiz-adv-x="1133" vert-adv-y="2048"  />

      
      <glyph glyph-name="uni79" unicode="&#x79;" d="M1055 1017L656-85Q610-210 524-280.50Q438-351 259-351Q216-351 59-342L59-59Q137-71 203-71Q375-71 375 5Q375 30 358 74L-7 1017L420 1017L588 475L764 1017L1055 1017Z"  horiz-adv-x="1049" vert-adv-y="2048"  />

      
      <glyph glyph-name="uni7a" unicode="&#x7a;" d="M931 253L931 0L34 0L34 221L463 772Q386 769 359 769L69 769L69 1017L915 1017L915 803L477 251L530 252Q546 253 559 253L931 253Z"  horiz-adv-x="965" vert-adv-y="2048"  />

      
      <glyph glyph-name="uni7b" unicode="&#x7b;" d="M276 522Q341 482 369.50 431Q398 380 398 277L398-20Q398-108 423.50-130.50Q449-153 571-153L602-153L602-317L534-318Q444-321 418-321Q248-321 176.50-255.50Q105-190 105-42L105 293Q105 391 69.50 422.50Q34 454-7 460L-7 604Q105 621 105 752L105 1086Q105 1235 176 1300.50Q247 1366 414 1366Q443 1366 602 1361L602 1202L559 1203Q471 1203 443 1191Q415 1179 406.50 1157.50Q398 1136 398 1069L398 767Q398 706 379.50 640Q361 574 276 522Z"  horiz-adv-x="601" vert-adv-y="2048"  />

      
      <glyph glyph-name="uni7c" unicode="&#x7c;" d="M371 1365L654 1365L654-341L371-341L371 1365Z"  horiz-adv-x="1024" vert-adv-y="2048"  />

      
      <glyph glyph-name="uni7d" unicode="&#x7d;" d="M325 522Q260 563 231.50 613.50Q203 664 203 767L203 1064Q203 1149 179.50 1173.50Q156 1198 41 1198Q27 1198-1 1197L-1 1361Q6 1361 68 1363Q158 1366 187 1366Q356 1366 426 1300Q496 1234 496 1086L496 752Q496 655 530 623Q564 591 608 585L608 440Q496 424 496 293L496-42Q496-186 428.50-253.50Q361-321 183-321Q159-321-1-317L-1-157L41-158Q156-158 179.50-133Q203-108 203-24L203 277Q203 338 221.50 404Q240 470 325 522Z"  horiz-adv-x="601" vert-adv-y="2048"  />

      
      <glyph glyph-name="uni7e" unicode="&#x7e;" d="M254 474L102 578Q167 744 239.50 805Q312 866 412 866Q482 866 628 812Q756 765 801 765Q888 765 943 870L1099 774Q982 496 773 496Q720 496 569 550Q436 597 398 597Q310 597 254 474Z"  horiz-adv-x="1201" vert-adv-y="2048"  />

      
      <glyph glyph-name="unic4" unicode="&#xc4;" d="M872 0L795 269L429 269L347 0L7 0L429 1365L872 1365L1299 0L872 0M500 567L722 567L611 963L500 567M473 1511Q418 1511 379 1549.50Q340 1588 340 1643Q340 1696 378.50 1735Q417 1774 473 1774Q529 1774 567 1734.50Q605 1695 605 1642Q605 1588 566 1549.50Q527 1511 473 1511M834 1511Q779 1511 739.50 1550Q700 1589 700 1643Q700 1697 739 1735.50Q778 1774 833 1774Q888 1774 926.50 1735.50Q965 1697 965 1643Q965 1588 926 1549.50Q887 1511 834 1511Z"  horiz-adv-x="1306" vert-adv-y="2048"  />

      
      <glyph glyph-name="unic5" unicode="&#xc5;" d="M872 0L795 269L429 269L347 0L7 0L429 1365L872 1365L1299 0L872 0M500 567L722 567L611 963L500 567M656 1468Q573 1468 514 1526.50Q455 1585 455 1668Q455 1751 514 1810Q573 1869 656 1869Q740 1869 799 1810.50Q858 1752 858 1669Q858 1585 798.50 1526.50Q739 1468 656 1468M656 1594Q687 1594 709.50 1616Q732 1638 732 1671Q732 1700 709.50 1722Q687 1744 656 1744Q625 1744 603 1721.50Q581 1699 581 1669Q581 1638 603 1616Q625 1594 656 1594Z"  horiz-adv-x="1306" vert-adv-y="2048"  />

      
      <glyph glyph-name="unic7" unicode="&#xc7;" d="M707-20L676-105Q698-103 712-103Q782-103 825-148.50Q868-194 868-262Q868-346 805-392Q742-438 643-438Q522-438 405-368L445-283Q531-330 608-330Q691-330 691-262Q691-218 648.50-199Q606-180 557-180Q547-180 528-181L591-15Q339 16 198.50 199.50Q58 383 58 671Q58 992 220 1189Q382 1386 672 1386Q943 1386 1088.50 1236Q1234 1086 1253 838L862 817Q862 954 809.50 1015Q757 1076 686 1076Q488 1076 488 678Q488 455 539.50 375Q591 295 684 295Q850 295 870 521L1253 498Q1226 254 1076 121Q926-12 707-20Z"  horiz-adv-x="1287" vert-adv-y="2048"  />

      
      <glyph glyph-name="unic9" unicode="&#xc9;" d="M1146 326L1146 0L119 0L119 1365L1146 1365L1146 1050L530 1050L530 852L1028 852L1028 549L530 549L530 326L1146 326M449 1619L906 1843L979 1648L501 1482L449 1619Z"  horiz-adv-x="1193" vert-adv-y="2048"  />

      
      <glyph glyph-name="unid1" unicode="&#xd1;" d="M1286 0L945 0L571 603Q499 719 426 885Q459 753 459 661L459 0L119 0L119 1365L515 1365L833 865Q928 716 977 603Q945 778 945 961L945 1365L1286 1365L1286 0M970 1754L1070 1637Q948 1509 826 1509Q764 1509 669 1558Q605 1591 569 1591Q499 1591 433 1513L335 1630Q456 1758 568 1758Q626 1758 704 1718Q788 1675 822 1675Q886 1675 970 1754Z"  horiz-adv-x="1405" vert-adv-y="2048"  />

      
      <glyph glyph-name="unid6" unicode="&#xd6;" d="M709-21Q421-21 239.50 170Q58 361 58 681Q58 987 231.50 1186.50Q405 1386 713 1386Q998 1386 1177.50 1198Q1357 1010 1357 696Q1357 371 1176 175Q995-21 709-21M707 289Q813 289 859.50 381.50Q906 474 906 720Q906 1076 715 1076Q509 1076 509 670Q509 289 707 289M521 1511Q466 1511 427 1549.50Q388 1588 388 1643Q388 1696 426.50 1735Q465 1774 521 1774Q577 1774 615 1734.50Q653 1695 653 1642Q653 1588 614 1549.50Q575 1511 521 1511M882 1511Q827 1511 787.50 1550Q748 1589 748 1643Q748 1697 787 1735.50Q826 1774 881 1774Q936 1774 974.50 1735.50Q1013 1697 1013 1643Q1013 1588 974 1549.50Q935 1511 882 1511Z"  horiz-adv-x="1415" vert-adv-y="2048"  />

      
      <glyph glyph-name="unidc" unicode="&#xdc;" d="M1226 1365L1226 461Q1226 204 1073.50 91.50Q921-21 676-21Q418-21 261.50 87Q105 195 105 439L105 1365L531 1365L531 488Q531 390 572.50 345Q614 300 705 300Q781 300 829.50 332.50Q878 365 887.50 406Q897 447 897 566L897 1365L1226 1365M485 1511Q430 1511 391 1549.50Q352 1588 352 1643Q352 1696 390.50 1735Q429 1774 485 1774Q541 1774 579 1734.50Q617 1695 617 1642Q617 1588 578 1549.50Q539 1511 485 1511M846 1511Q791 1511 751.50 1550Q712 1589 712 1643Q712 1697 751 1735.50Q790 1774 845 1774Q900 1774 938.50 1735.50Q977 1697 977 1643Q977 1588 938 1549.50Q899 1511 846 1511Z"  horiz-adv-x="1331" vert-adv-y="2048"  />

      
      <glyph glyph-name="unie1" unicode="&#xe1;" d="M1130 0L750 0Q736 65 736 142Q628-21 409-21Q229-21 139.50 71Q50 163 50 282Q50 443 196.50 542.50Q343 642 716 662L716 685Q716 752 685.50 774Q655 796 596 796Q458 796 442 685L78 719Q156 1038 609 1038Q732 1038 835 1013.50Q938 989 998 937Q1058 885 1078.50 827Q1099 769 1099 604L1099 198Q1099 82 1130 0M716 476Q461 449 461 313Q461 221 562 221Q626 221 671 259Q716 297 716 427L716 476M415 1298L872 1522L945 1327L467 1161L415 1298Z"  horiz-adv-x="1201" vert-adv-y="2048"  />

      
      <glyph glyph-name="unie0" unicode="&#xe0;" d="M1130 0L750 0Q736 65 736 142Q628-21 409-21Q229-21 139.50 71Q50 163 50 282Q50 443 196.50 542.50Q343 642 716 662L716 685Q716 752 685.50 774Q655 796 596 796Q458 796 442 685L78 719Q156 1038 609 1038Q732 1038 835 1013.50Q938 989 998 937Q1058 885 1078.50 827Q1099 769 1099 604L1099 198Q1099 82 1130 0M716 476Q461 449 461 313Q461 221 562 221Q626 221 671 259Q716 297 716 427L716 476M834 1298L782 1161L304 1327L377 1522L834 1298Z"  horiz-adv-x="1201" vert-adv-y="2048"  />

      
      <glyph glyph-name="unie2" unicode="&#xe2;" d="M1130 0L750 0Q736 65 736 142Q628-21 409-21Q229-21 139.50 71Q50 163 50 282Q50 443 196.50 542.50Q343 642 716 662L716 685Q716 752 685.50 774Q655 796 596 796Q458 796 442 685L78 719Q156 1038 609 1038Q732 1038 835 1013.50Q938 989 998 937Q1058 885 1078.50 827Q1099 769 1099 604L1099 198Q1099 82 1130 0M716 476Q461 449 461 313Q461 221 562 221Q626 221 671 259Q716 297 716 427L716 476M1025 1195L793 1174L623 1304L454 1174L222 1195L623 1513L1025 1195Z"  horiz-adv-x="1201" vert-adv-y="2048"  />

      
      <glyph glyph-name="unie4" unicode="&#xe4;" d="M1130 0L750 0Q736 65 736 142Q628-21 409-21Q229-21 139.50 71Q50 163 50 282Q50 443 196.50 542.50Q343 642 716 662L716 685Q716 752 685.50 774Q655 796 596 796Q458 796 442 685L78 719Q156 1038 609 1038Q732 1038 835 1013.50Q938 989 998 937Q1058 885 1078.50 827Q1099 769 1099 604L1099 198Q1099 82 1130 0M716 476Q461 449 461 313Q461 221 562 221Q626 221 671 259Q716 297 716 427L716 476M440 1188Q385 1188 346 1226.50Q307 1265 307 1320Q307 1373 345.50 1412Q384 1451 440 1451Q496 1451 534 1411.50Q572 1372 572 1319Q572 1265 533 1226.50Q494 1188 440 1188M801 1188Q746 1188 706.50 1227Q667 1266 667 1320Q667 1374 706 1412.50Q745 1451 800 1451Q855 1451 893.50 1412.50Q932 1374 932 1320Q932 1265 893 1226.50Q854 1188 801 1188Z"  horiz-adv-x="1201" vert-adv-y="2048"  />

      
      <glyph glyph-name="unie3" unicode="&#xe3;" d="M1130 0L750 0Q736 65 736 142Q628-21 409-21Q229-21 139.50 71Q50 163 50 282Q50 443 196.50 542.50Q343 642 716 662L716 685Q716 752 685.50 774Q655 796 596 796Q458 796 442 685L78 719Q156 1038 609 1038Q732 1038 835 1013.50Q938 989 998 937Q1058 885 1078.50 827Q1099 769 1099 604L1099 198Q1099 82 1130 0M716 476Q461 449 461 313Q461 221 562 221Q626 221 671 259Q716 297 716 427L716 476M892 1429L992 1312Q870 1184 748 1184Q686 1184 591 1233Q527 1266 491 1266Q421 1266 355 1188L257 1305Q378 1433 490 1433Q548 1433 626 1393Q710 1350 744 1350Q808 1350 892 1429Z"  horiz-adv-x="1201" vert-adv-y="2048"  />

      
      <glyph glyph-name="unie5" unicode="&#xe5;" d="M1130 0L750 0Q736 65 736 142Q628-21 409-21Q229-21 139.50 71Q50 163 50 282Q50 443 196.50 542.50Q343 642 716 662L716 685Q716 752 685.50 774Q655 796 596 796Q458 796 442 685L78 719Q156 1038 609 1038Q732 1038 835 1013.50Q938 989 998 937Q1058 885 1078.50 827Q1099 769 1099 604L1099 198Q1099 82 1130 0M716 476Q461 449 461 313Q461 221 562 221Q626 221 671 259Q716 297 716 427L716 476M621 1147Q538 1147 479 1205.50Q420 1264 420 1347Q420 1430 479 1489Q538 1548 621 1548Q705 1548 764 1489.50Q823 1431 823 1348Q823 1264 763.50 1205.50Q704 1147 621 1147M621 1273Q652 1273 674.50 1295Q697 1317 697 1350Q697 1379 674.50 1401Q652 1423 621 1423Q590 1423 568 1400.50Q546 1378 546 1348Q546 1317 568 1295Q590 1273 621 1273Z"  horiz-adv-x="1201" vert-adv-y="2048"  />

      
      <glyph glyph-name="unie7" unicode="&#xe7;" d="M606-20L577-100Q598-99 612-99Q679-99 720.50-142.50Q762-186 762-251Q762-332 701.50-376Q641-420 545-420Q428-420 317-354L356-272Q439-317 511-317Q592-317 592-252Q592-173 463-173Q453-173 435-174L495-17Q296 5 173.50 152Q51 299 51 501Q51 735 195.50 886.50Q340 1038 571 1038Q776 1038 905 923.50Q1034 809 1053 634L704 605Q682 766 582 766Q518 766 488.50 707.50Q459 649 459 504Q459 379 488.50 319Q518 259 591 259Q698 259 718 410L1058 381Q997 6 606-20Z"  horiz-adv-x="1071" vert-adv-y="2048"  />

      
      <glyph glyph-name="unie9" unicode="&#xe9;" d="M777 365L1149 340Q1116 190 980.50 84.50Q845-21 614-21Q357-21 204 127.50Q51 276 51 496Q51 724 202 881Q353 1038 605 1038Q849 1038 999.50 890Q1150 742 1150 487Q1150 466 1149 429L468 429Q470 333 502 286.50Q534 240 624 240Q754 240 777 365M751 629Q750 732 709.50 767.50Q669 803 609 803Q467 803 467 629L751 629M408 1298L865 1522L938 1327L460 1161L408 1298Z"  horiz-adv-x="1201" vert-adv-y="2048"  />

      
      <glyph glyph-name="unie8" unicode="&#xe8;" d="M777 365L1149 340Q1116 190 980.50 84.50Q845-21 614-21Q357-21 204 127.50Q51 276 51 496Q51 724 202 881Q353 1038 605 1038Q849 1038 999.50 890Q1150 742 1150 487Q1150 466 1149 429L468 429Q470 333 502 286.50Q534 240 624 240Q754 240 777 365M751 629Q750 732 709.50 767.50Q669 803 609 803Q467 803 467 629L751 629M832 1298L780 1161L302 1327L375 1522L832 1298Z"  horiz-adv-x="1201" vert-adv-y="2048"  />

      
      <glyph glyph-name="uniea" unicode="&#xea;" d="M777 365L1149 340Q1116 190 980.50 84.50Q845-21 614-21Q357-21 204 127.50Q51 276 51 496Q51 724 202 881Q353 1038 605 1038Q849 1038 999.50 890Q1150 742 1150 487Q1150 466 1149 429L468 429Q470 333 502 286.50Q534 240 624 240Q754 240 777 365M751 629Q750 732 709.50 767.50Q669 803 609 803Q467 803 467 629L751 629M1021 1195L789 1174L619 1304L450 1174L218 1195L619 1513L1021 1195Z"  horiz-adv-x="1201" vert-adv-y="2048"  />

      
      <glyph glyph-name="unieb" unicode="&#xeb;" d="M777 365L1149 340Q1116 190 980.50 84.50Q845-21 614-21Q357-21 204 127.50Q51 276 51 496Q51 724 202 881Q353 1038 605 1038Q849 1038 999.50 890Q1150 742 1150 487Q1150 466 1149 429L468 429Q470 333 502 286.50Q534 240 624 240Q754 240 777 365M751 629Q750 732 709.50 767.50Q669 803 609 803Q467 803 467 629L751 629M435 1188Q380 1188 341 1226.50Q302 1265 302 1320Q302 1373 340.50 1412Q379 1451 435 1451Q491 1451 529 1411.50Q567 1372 567 1319Q567 1265 528 1226.50Q489 1188 435 1188M796 1188Q741 1188 701.50 1227Q662 1266 662 1320Q662 1374 701 1412.50Q740 1451 795 1451Q850 1451 888.50 1412.50Q927 1374 927 1320Q927 1265 888 1226.50Q849 1188 796 1188Z"  horiz-adv-x="1201" vert-adv-y="2048"  />

      
      <glyph glyph-name="unied" unicode="&#xed;" d="M504 1017L504 0L105 0L105 1017L504 1017M96 1298L553 1522L626 1327L148 1161L96 1298Z"  horiz-adv-x="609" vert-adv-y="2048"  />

      
      <glyph glyph-name="uniec" unicode="&#xec;" d="M504 1017L504 0L105 0L105 1017L504 1017M517 1298L465 1161L-13 1327L60 1522L517 1298Z"  horiz-adv-x="609" vert-adv-y="2048"  />

      
      <glyph glyph-name="uniee" unicode="&#xee;" d="M504 1017L504 0L105 0L105 1017L504 1017M706 1195L474 1174L304 1304L135 1174L-97 1195L304 1513L706 1195Z"  horiz-adv-x="609" vert-adv-y="2048"  />

      
      <glyph glyph-name="unief" unicode="&#xef;" d="M504 1017L504 0L105 0L105 1017L504 1017M141 1188Q86 1188 47 1226.50Q8 1265 8 1320Q8 1373 46.50 1412Q85 1451 141 1451Q197 1451 235 1411.50Q273 1372 273 1319Q273 1265 234 1226.50Q195 1188 141 1188M502 1188Q447 1188 407.50 1227Q368 1266 368 1320Q368 1374 407 1412.50Q446 1451 501 1451Q556 1451 594.50 1412.50Q633 1374 633 1320Q633 1265 594 1226.50Q555 1188 502 1188Z"  horiz-adv-x="609" vert-adv-y="2048"  />

      
      <glyph glyph-name="unif1" unicode="&#xf1;" d="M1098 0L699 0L699 640Q699 719 674.50 741Q650 763 613 763Q504 763 504 611L504 0L105 0L105 1017L475 1017L475 873Q557 1038 768 1038Q879 1038 955.50 995.50Q1032 953 1065 885.50Q1098 818 1098 651L1098 0M869 1433L969 1316Q847 1188 725 1188Q663 1188 568 1237Q504 1270 468 1270Q398 1270 332 1192L234 1309Q355 1437 467 1437Q525 1437 603 1397Q687 1354 721 1354Q785 1354 869 1433Z"  horiz-adv-x="1203" vert-adv-y="2048"  />

      
      <glyph glyph-name="unif3" unicode="&#xf3;" d="M602-21Q349-21 200 136.50Q51 294 51 506Q51 734 206.50 886Q362 1038 611 1038Q862 1038 1014.50 888Q1167 738 1167 512Q1167 284 1012.50 131.50Q858-21 602-21M608 221Q701 221 721.50 317.50Q742 414 742 519Q742 662 713 725Q684 788 609 788Q540 788 508 723Q476 658 476 509Q476 334 509 277.50Q542 221 608 221M412 1298L869 1522L942 1327L464 1161L412 1298Z"  horiz-adv-x="1217" vert-adv-y="2048"  />

      
      <glyph glyph-name="unif2" unicode="&#xf2;" d="M602-21Q349-21 200 136.50Q51 294 51 506Q51 734 206.50 886Q362 1038 611 1038Q862 1038 1014.50 888Q1167 738 1167 512Q1167 284 1012.50 131.50Q858-21 602-21M608 221Q701 221 721.50 317.50Q742 414 742 519Q742 662 713 725Q684 788 609 788Q540 788 508 723Q476 658 476 509Q476 334 509 277.50Q542 221 608 221M827 1298L775 1161L297 1327L370 1522L827 1298Z"  horiz-adv-x="1217" vert-adv-y="2048"  />

      
      <glyph glyph-name="unif4" unicode="&#xf4;" d="M602-21Q349-21 200 136.50Q51 294 51 506Q51 734 206.50 886Q362 1038 611 1038Q862 1038 1014.50 888Q1167 738 1167 512Q1167 284 1012.50 131.50Q858-21 602-21M608 221Q701 221 721.50 317.50Q742 414 742 519Q742 662 713 725Q684 788 609 788Q540 788 508 723Q476 658 476 509Q476 334 509 277.50Q542 221 608 221M1010 1195L778 1174L608 1304L439 1174L207 1195L608 1513L1010 1195Z"  horiz-adv-x="1217" vert-adv-y="2048"  />

      
      <glyph glyph-name="unif6" unicode="&#xf6;" d="M602-21Q349-21 200 136.50Q51 294 51 506Q51 734 206.50 886Q362 1038 611 1038Q862 1038 1014.50 888Q1167 738 1167 512Q1167 284 1012.50 131.50Q858-21 602-21M608 221Q701 221 721.50 317.50Q742 414 742 519Q742 662 713 725Q684 788 609 788Q540 788 508 723Q476 658 476 509Q476 334 509 277.50Q542 221 608 221M429 1188Q374 1188 335 1226.50Q296 1265 296 1320Q296 1373 334.50 1412Q373 1451 429 1451Q485 1451 523 1411.50Q561 1372 561 1319Q561 1265 522 1226.50Q483 1188 429 1188M790 1188Q735 1188 695.50 1227Q656 1266 656 1320Q656 1374 695 1412.50Q734 1451 789 1451Q844 1451 882.50 1412.50Q921 1374 921 1320Q921 1265 882 1226.50Q843 1188 790 1188Z"  horiz-adv-x="1217" vert-adv-y="2048"  />

      
      <glyph glyph-name="unif5" unicode="&#xf5;" d="M602-21Q349-21 200 136.50Q51 294 51 506Q51 734 206.50 886Q362 1038 611 1038Q862 1038 1014.50 888Q1167 738 1167 512Q1167 284 1012.50 131.50Q858-21 602-21M608 221Q701 221 721.50 317.50Q742 414 742 519Q742 662 713 725Q684 788 609 788Q540 788 508 723Q476 658 476 509Q476 334 509 277.50Q542 221 608 221M890 1433L990 1316Q868 1188 746 1188Q684 1188 589 1237Q525 1270 489 1270Q419 1270 353 1192L255 1309Q376 1437 488 1437Q546 1437 624 1397Q708 1354 742 1354Q806 1354 890 1433Z"  horiz-adv-x="1217" vert-adv-y="2048"  />

      
      <glyph glyph-name="unifa" unicode="&#xfa;" d="M1094 1017L1094 0L725 0L725 167Q644-21 409-21Q264-21 184.50 59.50Q105 140 105 290L105 1017L504 1017L504 377Q504 317 520.50 292.50Q537 268 585 268Q636 268 668 304.50Q700 341 700 407L700 1017L1094 1017M396 1298L853 1522L926 1327L448 1161L396 1298Z"  horiz-adv-x="1199" vert-adv-y="2048"  />

      
      <glyph glyph-name="unif9" unicode="&#xf9;" d="M1094 1017L1094 0L725 0L725 167Q644-21 409-21Q264-21 184.50 59.50Q105 140 105 290L105 1017L504 1017L504 377Q504 317 520.50 292.50Q537 268 585 268Q636 268 668 304.50Q700 341 700 407L700 1017L1094 1017M812 1298L760 1161L282 1327L355 1522L812 1298Z"  horiz-adv-x="1199" vert-adv-y="2048"  />

      
      <glyph glyph-name="unifb" unicode="&#xfb;" d="M1094 1017L1094 0L725 0L725 167Q644-21 409-21Q264-21 184.50 59.50Q105 140 105 290L105 1017L504 1017L504 377Q504 317 520.50 292.50Q537 268 585 268Q636 268 668 304.50Q700 341 700 407L700 1017L1094 1017M1001 1195L769 1174L599 1304L430 1174L198 1195L599 1513L1001 1195Z"  horiz-adv-x="1199" vert-adv-y="2048"  />

      
      <glyph glyph-name="unifc" unicode="&#xfc;" d="M1094 1017L1094 0L725 0L725 167Q644-21 409-21Q264-21 184.50 59.50Q105 140 105 290L105 1017L504 1017L504 377Q504 317 520.50 292.50Q537 268 585 268Q636 268 668 304.50Q700 341 700 407L700 1017L1094 1017M420 1188Q365 1188 326 1226.50Q287 1265 287 1320Q287 1373 325.50 1412Q364 1451 420 1451Q476 1451 514 1411.50Q552 1372 552 1319Q552 1265 513 1226.50Q474 1188 420 1188M781 1188Q726 1188 686.50 1227Q647 1266 647 1320Q647 1374 686 1412.50Q725 1451 780 1451Q835 1451 873.50 1412.50Q912 1374 912 1320Q912 1265 873 1226.50Q834 1188 781 1188Z"  horiz-adv-x="1199" vert-adv-y="2048"  />

      
      <glyph glyph-name="uni2020" unicode="&#x2020;" d="M416 1365L785 1365L785 1035L1122 1035L1122 736L785 736L785-321L416-321L416 736L79 736L79 1035L416 1035L416 1365Z"  horiz-adv-x="1201" vert-adv-y="2048"  />

      
      <glyph glyph-name="unib0" unicode="&#xb0;" d="M297 1087Q297 1210 386 1298Q475 1386 601 1386Q726 1386 815.50 1298.50Q905 1211 905 1086Q905 962 815.50 874Q726 786 601 786Q475 786 386 874.50Q297 963 297 1087M464 1087Q464 1029 504.50 988.50Q545 948 600 948Q657 948 697.50 988Q738 1028 738 1086Q738 1144 697 1185Q656 1226 600 1226Q543 1226 503.50 1185Q464 1144 464 1087Z"  horiz-adv-x="1201" vert-adv-y="2048"  />

      
      <glyph glyph-name="unia2" unicode="&#xa2;" d="M709 234L709-23L518-23L518 234Q317 278 219.50 408.50Q122 539 122 715Q122 913 225.50 1047.50Q329 1182 518 1220L518 1424L709 1424L709 1220Q1030 1167 1078 852L744 826Q741 892 707.50 934Q674 976 624 976Q497 976 497 727Q497 491 625 491Q734 491 757 628L1078 601Q1020 287 709 234Z"  horiz-adv-x="1201" vert-adv-y="2048"  />

      
      <glyph glyph-name="unia3" unicode="&#xa3;" d="M850 856L850 614L669 614Q669 506 637.50 432.50Q606 359 526 294L695 294Q775 294 817 335Q859 376 876 462L1197 400Q1154 207 1028.50 103.50Q903 0 727 0L38 0L38 294L98 294Q200 294 244 348Q288 402 288 471Q288 530 270 614L98 614L98 856L228 856Q214 941 214 996Q214 1194 363.50 1306.50Q513 1419 715 1419Q864 1419 984.50 1349Q1105 1279 1152 1131L850 1024Q809 1136 728 1136Q678 1136 647.50 1104Q617 1072 617 1017Q617 958 638 856L850 856Z"  horiz-adv-x="1201" vert-adv-y="2048"  />

      
      <glyph glyph-name="unia7" unicode="&#xa7;" d="M117-40L412 9Q482-121 634-121Q708-121 750.50-93Q793-65 793-24Q793 21 749.50 53Q706 85 568 137Q394 202 311 249.50Q228 297 184.50 367.50Q141 438 141 540Q141 682 261 825Q162 906 162 1047Q162 1207 292.50 1296.50Q423 1386 627 1386Q946 1386 1061 1141L814 1070Q762 1183 620 1183Q562 1183 524.50 1162Q487 1141 487 1110Q487 1070 522.50 1044.50Q558 1019 728 951Q873 893 932 857Q991 821 1033.50 746Q1076 671 1076 583Q1076 443 963 321Q1107 222 1107 46Q1107-126 971.50-233.50Q836-341 611-341Q247-341 117-40M731 427Q792 472 792 518Q792 570 735.50 603Q679 636 490 709Q435 664 435 609Q435 577 465.50 547.50Q496 518 731 427Z"  horiz-adv-x="1201" vert-adv-y="2048"  />

      
      <glyph glyph-name="uni2022" unicode="&#x2022;" d="M964 696Q964 579 881.50 494.50Q799 410 683 410Q566 410 483.50 494.50Q401 579 401 696Q401 814 483.50 898Q566 982 683 982Q799 982 881.50 898Q964 814 964 696Z"  horiz-adv-x="1365" vert-adv-y="2048"  />

      
      <glyph glyph-name="unib6" unicode="&#xb6;" d="M1206 1365L1206 1207L1069 1207L1069-321L918-321L918 1207L777 1207L777-321L619-321L619 653L533 653Q341 653 272.50 659Q204 665 138.50 706Q73 747 34 828Q-5 909-5 1014Q-5 1151 61.50 1236.50Q128 1322 221.50 1343.50Q315 1365 542 1365L1206 1365M619 810L619 1207Q508 1207 468.50 1193.50Q429 1180 403 1135.50Q377 1091 377 1006Q377 925 405.50 879Q434 833 476 821.50Q518 810 619 810Z"  horiz-adv-x="1201" vert-adv-y="2048"  />

      
      <glyph glyph-name="unidf" unicode="&#xdf;" d="M491-130L116-130L116 684L42 684L42 934L116 934Q128 1210 286 1342.50Q444 1475 687 1475Q913 1475 1023 1380Q1133 1285 1133 1153Q1133 902 793 844Q825 829 896 800Q1118 708 1201.50 605.50Q1285 503 1285 369Q1285 199 1153.50 82.50Q1022-34 817-34Q663-34 569 0L657 272Q717 232 794 232Q932 232 932 323Q932 364 907 389Q882 414 795 460Q648 539 596 596Q544 653 544 737Q544 884 649 1010Q775 1010 775 1110Q775 1154 742 1184Q709 1214 658 1214Q491 1214 491 990L491-130Z"  horiz-adv-x="1319" vert-adv-y="2048"  />

      
      <glyph glyph-name="uniae" unicode="&#xae;" d="M792-21Q501-21 295 185.50Q89 392 89 683Q89 971 295 1178.50Q501 1386 792 1386Q1083 1386 1289 1179Q1495 972 1495 683Q1495 393 1288.50 186Q1082-21 792-21M792 137Q1014 137 1173 297.50Q1332 458 1332 683Q1332 907 1173.50 1067.50Q1015 1228 792 1228Q569 1228 410.50 1067.50Q252 907 252 683Q252 457 410 297Q568 137 792 137M1140 300L866 300L755 592L692 592L692 300L444 300L444 1065L847 1065Q976 1065 1055.50 1005Q1135 945 1135 833Q1135 694 1001 632L1140 300M692 755L782 755Q877 755 877 827Q877 898 790 898L692 898L692 755Z"  horiz-adv-x="1584" vert-adv-y="2048"  />

      
      <glyph glyph-name="unia9" unicode="&#xa9;" d="M792-21Q501-21 295 185.50Q89 392 89 683Q89 971 295 1178.50Q501 1386 792 1386Q1083 1386 1289 1179Q1495 972 1495 683Q1495 393 1288.50 186Q1082-21 792-21M792 137Q1014 137 1173 297.50Q1332 458 1332 683Q1332 907 1173.50 1067.50Q1015 1228 792 1228Q569 1228 410.50 1067.50Q252 907 252 683Q252 457 410 297Q568 137 792 137M908 595L1167 580Q1150 424 1047.50 342.50Q945 261 799 261Q620 261 512 372Q404 483 404 676Q404 868 507.50 986Q611 1104 796 1104Q1128 1104 1167 768L902 755Q900 908 803 908Q692 908 692 680Q692 461 803 461Q898 461 908 595Z"  horiz-adv-x="1584" vert-adv-y="2048"  />

      
      <glyph glyph-name="uni2122" unicode="&#x2122;" d="M426 1168L426 587L161 587L161 1168L-11 1168L-11 1365L598 1365L598 1168L426 1168M1576 1365L1576 587L1317 587L1317 1062L1183 587L1002 587L862 1065L862 587L649 587L649 1365L1002 1365L1114 990L1220 1365L1576 1365Z"  horiz-adv-x="1638" vert-adv-y="2048"  />

      
      <glyph glyph-name="unib4" unicode="&#xb4;" d="M288 1298L745 1522L818 1327L340 1161L288 1298Z"  horiz-adv-x="1024" vert-adv-y="2048"  />

      
      <glyph glyph-name="unia8" unicode="&#xa8;" d="M332 1188Q277 1188 238 1226.50Q199 1265 199 1320Q199 1373 237.50 1412Q276 1451 332 1451Q388 1451 426 1411.50Q464 1372 464 1319Q464 1265 425 1226.50Q386 1188 332 1188M693 1188Q638 1188 598.50 1227Q559 1266 559 1320Q559 1374 598 1412.50Q637 1451 692 1451Q747 1451 785.50 1412.50Q824 1374 824 1320Q824 1265 785 1226.50Q746 1188 693 1188Z"  horiz-adv-x="1024" vert-adv-y="2048"  />

      
      <glyph glyph-name="uni2260" unicode="&#x2260;" d="M1106 279L485 279L301-51L201 6L352 279L31 279L31 391L416 391L573 676L31 676L31 788L637 788L823 1124L924 1067L768 788L1106 788L1106 676L707 676L547 391L1106 391L1106 279Z"  horiz-adv-x="1124" vert-adv-y="2048"  />

      
      <glyph glyph-name="unic6" unicode="&#xc6;" d="M1818 326L1818 0L781 0L781 283L455 283L328 0L-27 0L582 1365L1804 1365L1804 1050L1195 1050L1195 852L1688 852L1688 549L1195 549L1195 326L1818 326M566 568L781 568L781 1050L566 568Z"  horiz-adv-x="1865" vert-adv-y="2048"  />

      
      <glyph glyph-name="unid8" unicode="&#xd8;" d="M270 140Q58 336 58 679Q58 991 234 1188.50Q410 1386 704 1386Q873 1386 994 1330L1084 1479L1295 1479L1144 1230Q1357 1036 1357 696Q1357 369 1174.50 174Q992-21 715-21Q551-21 422 39L330-113L116-113L270 140M516 544L817 1040Q775 1076 716 1076Q509 1076 509 675Q509 616 516 544M902 830L598 328Q641 289 707 289Q813 289 859.50 381.50Q906 474 906 720Q906 770 902 830Z"  horiz-adv-x="1415" vert-adv-y="2048"  />

      
      <glyph glyph-name="uni221E" unicode="&#x221E;" d="M653 668Q724 837 812 890.50Q900 944 1024 944Q1185 944 1296 827.50Q1407 711 1407 526Q1407 340 1295.50 223Q1184 106 1057 106Q962 106 886.50 169Q811 232 721 393Q604 160 397 160Q248 160 150.50 264.50Q53 369 53 528Q53 685 142 790Q231 895 360 895Q440 895 509 853Q578 811 653 668M750 465Q814 327 884.50 264Q955 201 1061 201Q1187 201 1268.50 292Q1350 383 1350 526Q1350 666 1266 766Q1182 866 1067 866Q1012 866 969.50 844.50Q927 823 895 782.50Q863 742 831 666L750 465M614 557L625 590Q529 805 358 805Q248 805 178.50 728.50Q109 652 109 530Q109 407 175.50 322.50Q242 238 338 238Q420 238 487.50 303Q555 368 614 557Z"  horiz-adv-x="1460" vert-adv-y="2048"  />

      
      <glyph glyph-name="unib1" unicode="&#xb1;" d="M1098 837L1098 583L728 583L728 220L473 220L473 583L103 583L103 837L473 837L473 1200L728 1200L728 837L1098 837M1098 134L1098-120L103-120L103 134L1098 134Z"  horiz-adv-x="1201" vert-adv-y="2048"  />

      
      <glyph glyph-name="uni2264" unicode="&#x2264;" d="M1077 240L59 711L59 838L1077 1309L1077 1182L190 774L1077 367L1077 240M1077 0L59 0L59 112L1077 112L1077 0Z"  horiz-adv-x="1124" vert-adv-y="2048"  />

      
      <glyph glyph-name="uni2265" unicode="&#x2265;" d="M1077 711L59 240L59 367L946 774L59 1182L59 1309L1077 838L1077 711M1077 0L59 0L59 112L1077 112L1077 0Z"  horiz-adv-x="1124" vert-adv-y="2048"  />

      
      <glyph glyph-name="unia5" unicode="&#xa5;" d="M957 915L1119 915L1119 710L857 710L810 614L1119 614L1119 410L792 410L792 0L439 0L439 410L107 410L107 614L419 614L369 710L107 710L107 915L260 915L21 1365L412 1365L650 875L880 1365L1178 1365L957 915Z"  horiz-adv-x="1199" vert-adv-y="2048"  />

      
      <glyph glyph-name="unib5" unicode="&#xb5;" d="M99-341L99 1010L498 1010L498 496Q498 324 519 276.50Q540 229 599 229Q661 229 682.50 275.50Q704 322 704 496L704 1010L1103 1010L1103 0L793 0L780 150Q765 66 731.50 22.50Q698-21 624-21Q528-21 484 110L484-341L99-341Z"  horiz-adv-x="1201" vert-adv-y="2048"  />

      
      <glyph glyph-name="uni2202" unicode="&#x2202;" d="M295 1120L250 1120Q381 1423 629 1423Q790 1423 892.50 1296Q995 1169 995 920Q995 562 830.50 265.50Q666-31 403-31Q248-31 157 60Q66 151 66 305Q66 544 232.50 725.50Q399 907 616 907Q838 907 928 717L932 717Q942 861 942 903Q942 1078 849.50 1179Q757 1280 596 1280Q402 1280 295 1120M911 629Q830 854 627 854Q449 854 341 663.50Q233 473 233 264Q233 156 287 91.50Q341 27 430 27Q566 27 709.50 189.50Q853 352 911 629Z"  horiz-adv-x="1012" vert-adv-y="2048"  />

      
      <glyph glyph-name="uni2211" unicode="&#x2211;" d="M1423 238Q1391 113 1369-2Q1347-117 1335-221Q1272-210 1232.50-204.50Q1193-199 1178-199L147-199Q127-199 88-202Q49-205 29-205L743 610L33 1540Q103 1533 156 1529.50Q209 1526 246 1526L1264 1526L1276 1200L1235 1200Q1204 1302 1182.50 1341Q1161 1380 1101 1407Q1071 1420 1026.50 1427Q982 1434 922 1434L383 1434L942 700L340 6L1100 6Q1227 6 1277.50 58Q1328 110 1376 238L1423 238Z"  horiz-adv-x="1460" vert-adv-y="2048"  />

      
      <glyph glyph-name="uni220F" unicode="&#x220F;" d="M1645-207L1016-207L1016-160Q1136-160 1175.50-119Q1215-78 1215 6L1215 1425L481 1425L481 6Q481-78 520.50-119Q560-160 680-160L680-207L51-207L51-160Q173-160 211.50-119Q250-78 250 6L250 1288Q250 1389 201.50 1440Q153 1491 55 1491L55 1538L1641 1538L1641 1491Q1543 1491 1494.50 1440Q1446 1389 1446 1288L1446 6Q1446-78 1484.50-119Q1523-160 1645-160L1645-207Z"  horiz-adv-x="1686" vert-adv-y="2048"  />

      
      <glyph glyph-name="uniF006" unicode="&#xF006;" d="M1085 309Q1080 154 1009.50 60.50Q939-33 842-33Q763-33 703.50 58.50Q644 150 644 340Q644 382 646 420Q648 458 651 492L686 821L455 821Q395 197 356.50 78.50Q318-40 226-40Q187-40 152-9Q117 22 117 73Q117 119 189.50 201.50Q262 284 270 352L330 821L233 821Q193 821 154.50 801.50Q116 782 98 756L55 692L20 692Q69 844 140.50 920.50Q212 997 305 997L1069 997L1069 821L811 821Q799 701 792.50 581Q786 461 786 340Q786 258 824 207Q862 156 919 156Q954 156 992.50 184.50Q1031 213 1036 259Q1039 281 1040.50 293.50Q1042 306 1042 309L1085 309Z"  horiz-adv-x="1124" vert-adv-y="2048"  />

      
      <glyph glyph-name="uni222B" unicode="&#x222B;" d="M602 1760Q602 1721 572.50 1696Q543 1671 497 1671Q460 1671 437 1696Q414 1721 393 1721Q375 1721 365.50 1706.50Q356 1692 356 1663Q356 1629 375.50 1407Q395 1185 395 856Q395 351 365 146.50Q335-58 286-136Q260-177 218.50-198Q177-219 133-219Q84-219 47-184Q10-149 10-99Q10-61 35.50-34Q61-7 100-7Q134-7 165.50-40Q197-73 210-73Q235-73 249.50-28.50Q264 16 264 125Q264 162 258 322Q252 482 252 884Q252 1365 269 1522.50Q286 1680 310 1738Q339 1808 379 1842Q419 1876 463 1876Q520 1876 561 1843.50Q602 1811 602 1760Z"  horiz-adv-x="561" vert-adv-y="2048"  />

      
      <glyph glyph-name="uniaa" unicode="&#xaa;" d="M735 767L476 767Q469 799 467 829Q407 755 271 755Q168 755 104.50 807.50Q41 860 41 939Q41 1144 454 1164Q454 1214 441 1228.50Q428 1243 390 1243Q312 1243 299 1183Q298 1181 297 1177L57 1199Q105 1393 398 1393Q530 1393 603 1356.50Q676 1320 694.50 1277Q713 1234 713 1130L713 891Q713 821 735 767M461 1053Q311 1035 311 958Q311 904 369 904Q425 904 443 935.50Q461 967 461 1053Z"  horiz-adv-x="786" vert-adv-y="2048"  />

      
      <glyph glyph-name="uniba" unicode="&#xba;" d="M394 755Q226 755 133.50 852.50Q41 950 41 1072Q41 1209 140.50 1301Q240 1393 399 1393Q556 1393 655 1304Q754 1215 754 1070Q754 940 656 847.50Q558 755 394 755M397 911Q439 911 454 951.50Q469 992 469 1072Q469 1167 452 1199.50Q435 1232 398 1232Q326 1232 326 1073Q326 979 343 945Q360 911 397 911Z"  horiz-adv-x="796" vert-adv-y="2048"  />

      
      <glyph glyph-name="uni2126" unicode="&#x2126;" d="M1506 0L902 0L935 311Q1096 370 1161 511Q1226 652 1226 824Q1226 1051 1119 1197Q1012 1343 788 1343Q564 1343 457 1197Q350 1051 350 824Q350 652 415 511Q480 370 641 311L674 0L70 0L70 332L100 332Q116 266 140 236.50Q164 207 236 207L559 207L555 264Q317 329 214 485Q111 641 111 817Q111 1076 303 1242.50Q495 1409 788 1409Q1081 1409 1273 1242.50Q1465 1076 1465 817Q1465 641 1362 485Q1259 329 1021 264L1017 207L1340 207Q1412 207 1436 236.50Q1460 266 1476 332L1506 332L1506 0Z"  horiz-adv-x="1573" vert-adv-y="2048"  />

      
      <glyph glyph-name="unie6" unicode="&#xe6;" d="M1573 436L967 436Q971 244 1111 244Q1229 244 1245 369L1573 344Q1543 180 1414 79.50Q1285-21 1106-21Q870-21 723 152Q596-21 372-21Q215-21 133 69Q51 159 51 281Q51 439 175.50 538Q300 637 649 666L649 698Q649 796 545 796Q433 796 412 684L74 719Q154 1038 563 1038Q730 1038 834 968Q952 1038 1089 1038Q1315 1038 1446 888Q1577 738 1577 511Q1577 488 1573 436M1224 633Q1224 808 1096 808Q968 808 966 633L1224 633M649 479Q429 446 429 316Q429 272 454.50 246.50Q480 221 517 221Q653 221 653 422Q653 440 649 479Z"  horiz-adv-x="1627" vert-adv-y="2048"  />

      
      <glyph glyph-name="unif8" unicode="&#xf8;" d="M1109 1128L970 927Q1166 774 1166 511Q1166 280 1009.50 129.50Q853-21 593-21Q482-21 379 19L293-109L108-109L240 100Q51 258 51 507Q51 734 206.50 886Q362 1038 613 1038Q724 1038 834 1000L923 1128L1109 1128M694 762Q663 788 610 788Q538 788 502.50 729.50Q467 671 467 500Q467 465 472 403L694 762M520 252Q549 221 608 221Q681 221 715.50 279Q750 337 750 523Q750 570 745 621L520 252Z"  horiz-adv-x="1217" vert-adv-y="2048"  />

      
      <glyph glyph-name="unibf" unicode="&#xbf;" d="M362 680L362 1045L745 1045L745 680L362 680M732 168L1099 128Q1015-341 554-341Q322-341 188-219Q54-97 54 85Q54 206 104.50 281Q155 356 283 450Q359 505 376 528.50Q393 552 400 594L732 594Q731 469 710 417Q689 365 622 305Q521 214 496 169.50Q471 125 471 66Q471 4 504.50-29.50Q538-63 586-63Q730-63 732 168Z"  horiz-adv-x="1119" vert-adv-y="2048"  />

      
      <glyph glyph-name="unia1" unicode="&#xa1;" d="M130 680L130 1045L516 1045L516 680L130 680M83-321L196 584L449 584L557-321L83-321Z"  horiz-adv-x="646" vert-adv-y="2048"  />

      
      <glyph glyph-name="uniac" unicode="&#xac;" d="M763 0L763 301L157 301L157 554L1044 554L1044 0L763 0Z"  horiz-adv-x="1201" vert-adv-y="2048"  />

      
      <glyph glyph-name="uni221A" unicode="&#x221A;" d="M1055 1868L748-78L250 950L53 854L20 922L319 1069L723 244L983 1878L1055 1868Z"  horiz-adv-x="1124" vert-adv-y="2048"  />

      
      <glyph glyph-name="uni0192" unicode="&#x0192;" d="M997 853L801 853L664 76Q628-126 518.50-216Q409-306 185-306Q85-306-14-282L31-28Q82-37 123-37Q207-37 241-3.50Q275 30 291 121L420 853L267 853L314 1117L467 1117Q497 1350 608.50 1441Q720 1532 925 1532Q1046 1532 1151 1508L1106 1255Q1046 1263 1012 1263Q930 1263 887.50 1237Q845 1211 832 1117L1043 1117L997 853Z"  horiz-adv-x="1201" vert-adv-y="2048"  />

      
      <glyph glyph-name="uni2248" unicode="&#x2248;" d="M1022 874L1073 874Q1052 719 977.50 636Q903 553 791 553Q694 553 487 670Q348 748 276 748Q127 748 98 561L51 561Q71 715 144.50 799Q218 883 326 883Q373 883 433 863.50Q493 844 657 756Q775 694 850 694Q994 694 1022 874M1022 487L1073 487Q1052 332 977.50 249Q903 166 791 166Q695 166 522.50 263Q350 360 276 360Q127 360 98 174L51 174Q71 327 144.50 410.50Q218 494 326 494Q373 494 438 472.50Q503 451 657 369Q775 307 850 307Q994 307 1022 487Z"  horiz-adv-x="1124" vert-adv-y="2048"  />

      
      <glyph glyph-name="uni2206" unicode="&#x2206;" d="M668 1409L1245 0L12 0L668 1409M594 1059L147 100L991 100L594 1059Z"  horiz-adv-x="1253" vert-adv-y="2048"  />

      
      <glyph glyph-name="uniab" unicode="&#xab;" d="M696 784L591 491L696 220L555 220L381 491L555 784L696 784M381 784L274 491L381 220L241 220L62 491L241 784L381 784Z"  horiz-adv-x="771" vert-adv-y="2048"  />

      
      <glyph glyph-name="unibb" unicode="&#xbb;" d="M75 220L181 512L75 784L217 784L390 512L217 220L75 220M390 220L497 512L390 784L531 784L709 512L531 220L390 220Z"  horiz-adv-x="771" vert-adv-y="2048"  />

      
      <glyph glyph-name="uni2026" unicode="&#x2026;" d="M482 365L482 0L102 0L102 365L482 365M1067 365L1067 0L686 0L686 365L1067 365M1652 365L1652 0L1272 0L1272 365L1652 365Z"  horiz-adv-x="1754" vert-adv-y="2048"  />

      
      <glyph glyph-name="unic0" unicode="&#xc0;" d="M872 0L795 269L429 269L347 0L7 0L429 1365L872 1365L1299 0L872 0M500 567L722 567L611 963L500 567M877 1619L825 1482L347 1648L420 1843L877 1619Z"  horiz-adv-x="1306" vert-adv-y="2048"  />

      
      <glyph glyph-name="unic3" unicode="&#xc3;" d="M872 0L795 269L429 269L347 0L7 0L429 1365L872 1365L1299 0L872 0M500 567L722 567L611 963L500 567M921 1754L1021 1637Q899 1509 777 1509Q715 1509 620 1558Q556 1591 520 1591Q450 1591 384 1513L286 1630Q407 1758 519 1758Q577 1758 655 1718Q739 1675 773 1675Q837 1675 921 1754Z"  horiz-adv-x="1306" vert-adv-y="2048"  />

      
      <glyph glyph-name="unid5" unicode="&#xd5;" d="M709-21Q421-21 239.50 170Q58 361 58 681Q58 987 231.50 1186.50Q405 1386 713 1386Q998 1386 1177.50 1198Q1357 1010 1357 696Q1357 371 1176 175Q995-21 709-21M707 289Q813 289 859.50 381.50Q906 474 906 720Q906 1076 715 1076Q509 1076 509 670Q509 289 707 289M989 1754L1089 1637Q967 1509 845 1509Q783 1509 688 1558Q624 1591 588 1591Q518 1591 452 1513L354 1630Q475 1758 587 1758Q645 1758 723 1718Q807 1675 841 1675Q905 1675 989 1754Z"  horiz-adv-x="1415" vert-adv-y="2048"  />

      
      <glyph glyph-name="uni0152" unicode="&#x0152;" d="M1897 0L901 0Q797-21 708-21Q417-21 237.50 171Q58 363 58 681Q58 975 225.50 1180.50Q393 1386 710 1386Q807 1386 901 1365L1897 1365L1897 1050L1279 1050L1279 852L1776 852L1776 549L1279 549L1279 326L1897 326L1897 0M712 1084Q503 1084 503 681Q503 493 545.50 391Q588 289 710 289Q809 289 855.50 370.50Q902 452 902 684Q902 925 852.50 1004.50Q803 1084 712 1084Z"  horiz-adv-x="1945" vert-adv-y="2048"  />

      
      <glyph glyph-name="uni0153" unicode="&#x0153;" d="M1680 429L1056 429Q1061 229 1197 229Q1248 229 1290.50 262.50Q1333 296 1341 363L1680 339Q1646 175 1512.50 77Q1379-21 1198-21Q1015-21 884 73Q736-21 569-21Q407-21 291.50 50.50Q176 122 113.50 244Q51 366 51 498Q51 723 194 880.50Q337 1038 571 1038Q739 1038 884 946Q1017 1038 1183 1038Q1402 1038 1542 893Q1682 748 1682 487Q1682 469 1680 429M1320 628Q1321 644 1321 654Q1321 714 1287.50 758Q1254 802 1193 802Q1063 802 1054 628L1320 628M576 221Q639 221 668.50 273.50Q698 326 698 516Q698 678 670.50 733Q643 788 577 788Q505 788 477.50 717.50Q450 647 450 498Q450 327 481.50 274Q513 221 576 221Z"  horiz-adv-x="1733" vert-adv-y="2048"  />

      
      <glyph glyph-name="uni2013" unicode="&#x2013;" d="M1092 673L1092 359L108 359L108 673L1092 673Z"  horiz-adv-x="1201" vert-adv-y="2048"  />

      
      <glyph glyph-name="uni2014" unicode="&#x2014;" d="M1454 673L1454 359L-90 359L-90 673L1454 673Z"  horiz-adv-x="1365" vert-adv-y="2048"  />

      
      <glyph glyph-name="uni201C" unicode="&#x201C;" d="M505 781L505 1080L683 1365L837 1365L700 1098L837 1098L837 781L505 781M102 781L102 1080L277 1365L435 1365L295 1098L435 1098L435 781L102 781Z"  horiz-adv-x="939" vert-adv-y="2048"  />

      
      <glyph glyph-name="uni201D" unicode="&#x201D;" d="M432 1365L432 1066L255 781L102 781L238 1049L102 1049L102 1365L432 1365M837 1365L837 1066L662 781L503 781L643 1049L503 1049L503 1365L837 1365Z"  horiz-adv-x="939" vert-adv-y="2048"  />

      
      <glyph glyph-name="uni2018" unicode="&#x2018;" d="M109 775L109 1063L297 1365L454 1365L317 1094L454 1094L454 775L109 775Z"  horiz-adv-x="563" vert-adv-y="2048"  />

      
      <glyph glyph-name="uni2019" unicode="&#x2019;" d="M454 1365L454 1078L267 775L109 775L247 1047L109 1047L109 1365L454 1365Z"  horiz-adv-x="563" vert-adv-y="2048"  />

      
      <glyph glyph-name="unif7" unicode="&#xf7;" d="M752 1053Q752 988 706 942.50Q660 897 595 897Q530 897 481 942.50Q432 988 432 1056Q432 1122 480 1168.50Q528 1215 594 1215Q665 1215 708.50 1165.50Q752 1116 752 1053M1098 816L1098 563L103 563L103 816L1098 816M752 320Q752 255 706 209.50Q660 164 595 164Q529 164 480.50 209.50Q432 255 432 323Q432 389 480 435.50Q528 482 595 482Q662 482 707 433.50Q752 385 752 320Z"  horiz-adv-x="1201" vert-adv-y="2048"  />

      
      <glyph glyph-name="uni25CA" unicode="&#x25CA;" d="M962 763L565 0L443 0L46 763L443 1526L565 1526L962 763M839 763L504 1415L169 763L504 111L839 763Z"  horiz-adv-x="1012" vert-adv-y="2048"  />

      
      <glyph glyph-name="uniff" unicode="&#xff;" d="M1055 1017L656-85Q610-210 524-280.50Q438-351 259-351Q216-351 59-342L59-59Q137-71 203-71Q375-71 375 5Q375 30 358 74L-7 1017L420 1017L588 475L764 1017L1055 1017M362 1188Q307 1188 268 1226.50Q229 1265 229 1320Q229 1373 267.50 1412Q306 1451 362 1451Q418 1451 456 1411.50Q494 1372 494 1319Q494 1265 455 1226.50Q416 1188 362 1188M723 1188Q668 1188 628.50 1227Q589 1266 589 1320Q589 1374 628 1412.50Q667 1451 722 1451Q777 1451 815.50 1412.50Q854 1374 854 1320Q854 1265 815 1226.50Q776 1188 723 1188Z"  horiz-adv-x="1049" vert-adv-y="2048"  />

      
      <glyph glyph-name="uni0178" unicode="&#x0178;" d="M1252 1365L825 578L825 0L418 0L418 578L-41 1365L418 1365L657 916L886 1365L1252 1365M452 1511Q397 1511 358 1549.50Q319 1588 319 1643Q319 1696 357.50 1735Q396 1774 452 1774Q508 1774 546 1734.50Q584 1695 584 1642Q584 1588 545 1549.50Q506 1511 452 1511M813 1511Q758 1511 718.50 1550Q679 1589 679 1643Q679 1697 718 1735.50Q757 1774 812 1774Q867 1774 905.50 1735.50Q944 1697 944 1643Q944 1588 905 1549.50Q866 1511 813 1511Z"  horiz-adv-x="1211" vert-adv-y="2048"  />

      
      <glyph glyph-name="uni2215" unicode="&#x2215;" d="M611 1365L-218 0L-393 0L441 1365L611 1365Z"  horiz-adv-x="218" vert-adv-y="2048"  />

      
      <glyph glyph-name="unia4" unicode="&#xa4;" d="M41 282L253 493Q163 624 163 773Q163 927 253 1055L41 1267L185 1412L397 1201Q529 1289 683 1289Q837 1289 965 1201L1176 1412L1320 1267L1111 1058Q1204 917 1204 773Q1204 623 1115 493L1326 282L1183 138L973 347Q835 256 684 256Q534 256 397 347L185 138L41 282M962 773Q962 888 880.50 970Q799 1052 684 1052Q568 1052 486.50 969.50Q405 887 405 773Q405 658 487 575.50Q569 493 683 493Q798 493 880 575Q962 657 962 773Z"  horiz-adv-x="1365" vert-adv-y="2048"  />

      
      <glyph glyph-name="uni2039" unicode="&#x2039;" d="M377 784L271 491L377 220L235 220L62 491L235 784L377 784Z"  horiz-adv-x="452" vert-adv-y="2048"  />

      
      <glyph glyph-name="uni203A" unicode="&#x203A;" d="M75 220L181 512L75 784L217 784L390 512L217 220L75 220Z"  horiz-adv-x="452" vert-adv-y="2048"  />

      
      <glyph glyph-name="uniFB01" unicode="&#xFB01;" d="M672 758L535 758L535 0L158 0L158 758L37 758L37 1017L158 1017Q158 1177 186.50 1256.50Q215 1336 305.50 1385Q396 1434 551 1434Q609 1434 672 1427L672 1165L657 1166Q608 1166 579.50 1148.50Q551 1131 543 1106Q535 1081 535 1017L672 1017L672 758M1169 1406L1169 1092L776 1092L776 1406L1169 1406M1169 0L776 0L776 1017L1169 1017L1169 0Z"  horiz-adv-x="1274" vert-adv-y="2048"  />

      
      <glyph glyph-name="uniFB02" unicode="&#xFB02;" d="M671 758L535 758L535 0L158 0L158 758L38 758L38 1017L158 1017Q157 1052 157 1068Q157 1260 248.50 1347Q340 1434 549 1434Q609 1434 671 1427L671 1165Q588 1165 561.50 1140.50Q535 1116 535 1041L535 1017L671 1017L671 758M1169 0L775 0L775 1365L1169 1365L1169 0Z"  horiz-adv-x="1273" vert-adv-y="2048"  />

      
      <glyph glyph-name="uni2021" unicode="&#x2021;" d="M416 1365L785 1365L785 1035L1122 1035L1122 736L785 736L785 322L1122 322L1122 23L785 23L785-321L416-321L416 23L79 23L79 322L416 322L416 736L79 736L79 1035L416 1035L416 1365Z"  horiz-adv-x="1201" vert-adv-y="2048"  />

      
      <glyph glyph-name="uni2219" unicode="&#x2219;" d="M380 865L380 500L0 500L0 865L380 865Z"  horiz-adv-x="380" vert-adv-y="2048"  />

      
      <glyph glyph-name="uni201A" unicode="&#x201A;" d="M454 318L454 31L267-272L109-272L247 0L109 0L109 318L454 318Z"  horiz-adv-x="563" vert-adv-y="2048"  />

      
      <glyph glyph-name="uni201E" unicode="&#x201E;" d="M432 317L432 18L255-268L102-268L238 0L102 0L102 317L432 317M837 317L837 18L662-268L503-268L643 0L503 0L503 317L837 317Z"  horiz-adv-x="939" vert-adv-y="2048"  />

      
      <glyph glyph-name="uni2030" unicode="&#x2030;" d="M337 673Q210 673 135.50 769.50Q61 866 61 1026Q61 1189 137.50 1282.50Q214 1376 341 1376Q473 1376 545 1276.50Q617 1177 617 1020Q617 860 540 766.50Q463 673 337 673M338 822Q409 822 409 1022Q409 1113 395.50 1170Q382 1227 339 1227Q270 1227 270 1034Q270 915 284.50 868.50Q299 822 338 822M1234 1365L405 0L216 0L1051 1365L1234 1365M1114-10Q988-10 913.50 86.50Q839 183 839 343Q839 506 915 600Q991 694 1118 694Q1241 694 1317.50 600.50Q1394 507 1394 337Q1394 178 1317 84Q1240-10 1114-10M1116 139Q1187 139 1187 339Q1187 430 1174 487.50Q1161 545 1118 545Q1048 545 1048 353Q1048 231 1062.50 185Q1077 139 1116 139M1790-10Q1669-10 1592 83Q1515 176 1515 343Q1515 506 1591 600Q1667 694 1794 694Q1927 694 1998 593.50Q2069 493 2069 337Q2069 178 1992.50 84Q1916-10 1790-10M1792 139Q1863 139 1863 339Q1863 430 1849.50 487.50Q1836 545 1793 545Q1724 545 1724 353Q1724 214 1742 176.50Q1760 139 1792 139Z"  horiz-adv-x="2131" vert-adv-y="2048"  />

      
      <glyph glyph-name="unic2" unicode="&#xc2;" d="M872 0L795 269L429 269L347 0L7 0L429 1365L872 1365L1299 0L872 0M500 567L722 567L611 963L500 567M1052 1516L820 1495L650 1625L481 1495L249 1516L650 1834L1052 1516Z"  horiz-adv-x="1306" vert-adv-y="2048"  />

      
      <glyph glyph-name="unica" unicode="&#xca;" d="M1146 326L1146 0L119 0L119 1365L1146 1365L1146 1050L530 1050L530 852L1028 852L1028 549L530 549L530 326L1146 326M1034 1516L802 1495L632 1625L463 1495L231 1516L632 1834L1034 1516Z"  horiz-adv-x="1193" vert-adv-y="2048"  />

      
      <glyph glyph-name="unic1" unicode="&#xc1;" d="M872 0L795 269L429 269L347 0L7 0L429 1365L872 1365L1299 0L872 0M500 567L722 567L611 963L500 567M429 1619L886 1843L959 1648L481 1482L429 1619Z"  horiz-adv-x="1306" vert-adv-y="2048"  />

      
      <glyph glyph-name="unicb" unicode="&#xcb;" d="M1146 326L1146 0L119 0L119 1365L1146 1365L1146 1050L530 1050L530 852L1028 852L1028 549L530 549L530 326L1146 326M446 1511Q391 1511 352 1549.50Q313 1588 313 1643Q313 1696 351.50 1735Q390 1774 446 1774Q502 1774 540 1734.50Q578 1695 578 1642Q578 1588 539 1549.50Q500 1511 446 1511M807 1511Q752 1511 712.50 1550Q673 1589 673 1643Q673 1697 712 1735.50Q751 1774 806 1774Q861 1774 899.50 1735.50Q938 1697 938 1643Q938 1588 899 1549.50Q860 1511 807 1511Z"  horiz-adv-x="1193" vert-adv-y="2048"  />

      
      <glyph glyph-name="unic8" unicode="&#xc8;" d="M1146 326L1146 0L119 0L119 1365L1146 1365L1146 1050L530 1050L530 852L1028 852L1028 549L530 549L530 326L1146 326M832 1619L780 1482L302 1648L375 1843L832 1619Z"  horiz-adv-x="1193" vert-adv-y="2048"  />

      
      <glyph glyph-name="unicd" unicode="&#xcd;" d="M538 1365L538 0L119 0L119 1365L538 1365M117 1619L574 1843L647 1648L169 1482L117 1619Z"  horiz-adv-x="657" vert-adv-y="2048"  />

      
      <glyph glyph-name="unice" unicode="&#xce;" d="M538 1365L538 0L119 0L119 1365L538 1365M785 1516L553 1495L383 1625L214 1495L-18 1516L383 1834L785 1516Z"  horiz-adv-x="657" vert-adv-y="2048"  />

      
      <glyph glyph-name="unicf" unicode="&#xcf;" d="M538 1365L538 0L119 0L119 1365L538 1365M166 1511Q111 1511 72 1549.50Q33 1588 33 1643Q33 1696 71.50 1735Q110 1774 166 1774Q222 1774 260 1734.50Q298 1695 298 1642Q298 1588 259 1549.50Q220 1511 166 1511M527 1511Q472 1511 432.50 1550Q393 1589 393 1643Q393 1697 432 1735.50Q471 1774 526 1774Q581 1774 619.50 1735.50Q658 1697 658 1643Q658 1588 619 1549.50Q580 1511 527 1511Z"  horiz-adv-x="657" vert-adv-y="2048"  />

      
      <glyph glyph-name="unicc" unicode="&#xcc;" d="M538 1365L538 0L119 0L119 1365L538 1365M565 1619L513 1482L35 1648L108 1843L565 1619Z"  horiz-adv-x="657" vert-adv-y="2048"  />

      
      <glyph glyph-name="unid3" unicode="&#xd3;" d="M709-21Q421-21 239.50 170Q58 361 58 681Q58 987 231.50 1186.50Q405 1386 713 1386Q998 1386 1177.50 1198Q1357 1010 1357 696Q1357 371 1176 175Q995-21 709-21M707 289Q813 289 859.50 381.50Q906 474 906 720Q906 1076 715 1076Q509 1076 509 670Q509 289 707 289M525 1619L982 1843L1055 1648L577 1482L525 1619Z"  horiz-adv-x="1415" vert-adv-y="2048"  />

      
      <glyph glyph-name="unid4" unicode="&#xd4;" d="M709-21Q421-21 239.50 170Q58 361 58 681Q58 987 231.50 1186.50Q405 1386 713 1386Q998 1386 1177.50 1198Q1357 1010 1357 696Q1357 371 1176 175Q995-21 709-21M707 289Q813 289 859.50 381.50Q906 474 906 720Q906 1076 715 1076Q509 1076 509 670Q509 289 707 289M1109 1516L877 1495L707 1625L538 1495L306 1516L707 1834L1109 1516Z"  horiz-adv-x="1415" vert-adv-y="2048"  />

      
      <glyph glyph-name="unid2" unicode="&#xd2;" d="M709-21Q421-21 239.50 170Q58 361 58 681Q58 987 231.50 1186.50Q405 1386 713 1386Q998 1386 1177.50 1198Q1357 1010 1357 696Q1357 371 1176 175Q995-21 709-21M707 289Q813 289 859.50 381.50Q906 474 906 720Q906 1076 715 1076Q509 1076 509 670Q509 289 707 289M916 1619L864 1482L386 1648L459 1843L916 1619Z"  horiz-adv-x="1415" vert-adv-y="2048"  />

      
      <glyph glyph-name="unida" unicode="&#xda;" d="M1226 1365L1226 461Q1226 204 1073.50 91.50Q921-21 676-21Q418-21 261.50 87Q105 195 105 439L105 1365L531 1365L531 488Q531 390 572.50 345Q614 300 705 300Q781 300 829.50 332.50Q878 365 887.50 406Q897 447 897 566L897 1365L1226 1365M498 1619L955 1843L1028 1648L550 1482L498 1619Z"  horiz-adv-x="1331" vert-adv-y="2048"  />

      
      <glyph glyph-name="unidb" unicode="&#xdb;" d="M1226 1365L1226 461Q1226 204 1073.50 91.50Q921-21 676-21Q418-21 261.50 87Q105 195 105 439L105 1365L531 1365L531 488Q531 390 572.50 345Q614 300 705 300Q781 300 829.50 332.50Q878 365 887.50 406Q897 447 897 566L897 1365L1226 1365M1094 1516L862 1495L692 1625L523 1495L291 1516L692 1834L1094 1516Z"  horiz-adv-x="1331" vert-adv-y="2048"  />

      
      <glyph glyph-name="unid9" unicode="&#xd9;" d="M1226 1365L1226 461Q1226 204 1073.50 91.50Q921-21 676-21Q418-21 261.50 87Q105 195 105 439L105 1365L531 1365L531 488Q531 390 572.50 345Q614 300 705 300Q781 300 829.50 332.50Q878 365 887.50 406Q897 447 897 566L897 1365L1226 1365M893 1619L841 1482L363 1648L436 1843L893 1619Z"  horiz-adv-x="1331" vert-adv-y="2048"  />

      
      <glyph glyph-name="uni0131" unicode="&#x0131;" d="M504 1017L504 0L105 0L105 1017L504 1017Z"  horiz-adv-x="609" vert-adv-y="2048"  />

      
      <glyph glyph-name="uni02C6" unicode="&#x02C6;" d="M914 1195L682 1174L512 1304L343 1174L111 1195L512 1513L914 1195Z"  horiz-adv-x="1024" vert-adv-y="2048"  />

      
      <glyph glyph-name="uni02DC" unicode="&#x02DC;" d="M780 1433L880 1316Q758 1188 636 1188Q574 1188 479 1237Q415 1270 379 1270Q309 1270 243 1192L145 1309Q266 1437 378 1437Q436 1437 514 1397Q598 1354 632 1354Q696 1354 780 1433Z"  horiz-adv-x="1024" vert-adv-y="2048"  />

      
      <glyph glyph-name="uni02C9" unicode="&#x02C9;" d="M188 1208L188 1363L835 1363L835 1208L188 1208Z"  horiz-adv-x="1024" vert-adv-y="2048"  />

      
      <glyph glyph-name="uni02D8" unicode="&#x02D8;" d="M700 1495L876 1495Q841 1342 739 1261.50Q637 1181 513 1181Q391 1181 289 1258Q187 1335 148 1495L324 1495Q393 1353 514 1353Q636 1353 700 1495Z"  horiz-adv-x="1024" vert-adv-y="2048"  />

      
      <glyph glyph-name="uni02D9" unicode="&#x02D9;" d="M513 1188Q457 1188 416.50 1228Q376 1268 376 1324Q376 1380 416 1419.50Q456 1459 512 1459Q569 1459 609 1419.50Q649 1380 649 1324Q649 1267 609 1227.50Q569 1188 513 1188Z"  horiz-adv-x="1024" vert-adv-y="2048"  />

      
      <glyph glyph-name="uni02DA" unicode="&#x02DA;" d="M512 1147Q429 1147 370 1205.50Q311 1264 311 1347Q311 1430 370 1489Q429 1548 512 1548Q596 1548 655 1489.50Q714 1431 714 1348Q714 1264 654.50 1205.50Q595 1147 512 1147M512 1273Q543 1273 565.50 1295Q588 1317 588 1350Q588 1379 565.50 1401Q543 1423 512 1423Q481 1423 459 1400.50Q437 1378 437 1348Q437 1317 459 1295Q481 1273 512 1273Z"  horiz-adv-x="1024" vert-adv-y="2048"  />

      
      <glyph glyph-name="unib8" unicode="&#xb8;" d="M448 0L560 0L524-100Q545-99 558-99Q626-99 667.50-142.50Q709-186 709-251Q709-332 648.50-376Q588-420 492-420Q375-420 264-354L302-272Q385-317 458-317Q539-317 539-252Q539-173 410-173Q400-173 382-174L448 0Z"  horiz-adv-x="1024" vert-adv-y="2048"  />

      
      <glyph glyph-name="uni02DD" unicode="&#x02DD;" d="M614 1277L938 1536L1035 1372L682 1161L614 1277M206 1277L529 1536L627 1372L273 1161L206 1277Z"  horiz-adv-x="1024" vert-adv-y="2048"  />

      
      <glyph glyph-name="uni02DB" unicode="&#x02DB;" d="M884 0Q750-75 750-164Q750-254 857-254Q898-254 949-236L969-321Q886-361 786-361Q665-361 617-312.50Q569-264 569-204Q569-82 733 0L884 0Z"  horiz-adv-x="1024" vert-adv-y="2048"  />

      
      <glyph glyph-name="uni02C7" unicode="&#x02C7;" d="M111 1479L343 1499L512 1369L682 1499L914 1479L512 1161L111 1479Z"  horiz-adv-x="1024" vert-adv-y="2048"  />

      
      <glyph glyph-name="uni0141" unicode="&#x0141;" d="M1076 333L1076 0L115 0L115 463L7 357L7 600L115 705L115 1365L534 1365L534 967L724 1140L724 898L534 724L534 333L1076 333Z"  horiz-adv-x="1103" vert-adv-y="2048"  />

      
      <glyph glyph-name="uni0142" unicode="&#x0142;" d="M635 994L635 784L518 692L518 0L124 0L124 503L7 410L7 620L124 713L124 1365L518 1365L518 902L635 994Z"  horiz-adv-x="642" vert-adv-y="2048"  />

      
      <glyph glyph-name="uni0160" unicode="&#x0160;" d="M-22 395L367 465Q416 300 619 300Q777 300 777 384Q777 428 740.50 452.50Q704 477 610 496Q251 565 149 676Q47 787 47 937Q47 1130 193.50 1258Q340 1386 615 1386Q1032 1386 1166 1051L819 946Q765 1083 600 1083Q463 1083 463 998Q463 960 494 939Q525 918 614 899Q859 847 962 807Q1065 767 1134 670.50Q1203 574 1203 443Q1203 236 1035 107.50Q867-21 594-21Q95-21-22 395M204 1800L436 1820L605 1690L775 1820L1007 1800L605 1482L204 1800Z"  horiz-adv-x="1244" vert-adv-y="2048"  />

      
      <glyph glyph-name="uni0161" unicode="&#x0161;" d="M15 288L330 331Q357 221 544 221Q699 221 699 281Q699 307 669 321.50Q639 336 527 351Q217 394 140 485.50Q63 577 63 689Q63 845 193 941.50Q323 1038 534 1038Q904 1038 1006 771L704 714Q662 804 527 804Q463 804 431.50 786.50Q400 769 400 752Q400 702 496 691Q746 663 835 634Q924 605 987 528Q1050 451 1050 342Q1050 175 910.50 77Q771-21 526-21Q113-21 15 288M142 1479L374 1499L543 1369L713 1499L945 1479L543 1161L142 1479Z"  horiz-adv-x="1085" vert-adv-y="2048"  />

      
      <glyph glyph-name="uni017D" unicode="&#x017D;" d="M1170 322L1170 0L34 0L34 261L639 1049L80 1049L80 1365L1151 1365L1151 1100L564 322L1170 322M214 1800L446 1820L615 1690L785 1820L1017 1800L615 1482L214 1800Z"  horiz-adv-x="1204" vert-adv-y="2048"  />

      
      <glyph glyph-name="uni017E" unicode="&#x017E;" d="M931 253L931 0L34 0L34 221L463 772Q386 769 359 769L69 769L69 1017L915 1017L915 803L477 251L530 252Q546 253 559 253L931 253M91 1479L323 1499L492 1369L662 1499L894 1479L492 1161L91 1479Z"  horiz-adv-x="965" vert-adv-y="2048"  />

      
      <glyph glyph-name="unia6" unicode="&#xa6;" d="M371 1365L654 1365L654 652L371 652L371 1365M371 314L654 314L654-341L371-341L371 314Z"  horiz-adv-x="1024" vert-adv-y="2048"  />

      
      <glyph glyph-name="unid0" unicode="&#xd0;" d="M119 1365L647 1365Q991 1365 1162 1161Q1333 957 1333 689Q1333 383 1149.50 191.50Q966 0 674 0L119 0L119 601L7 601L7 801L119 801L119 1365M538 801L733 801L733 601L538 601L538 314L647 314Q751 314 822.50 415Q894 516 894 690Q894 830 833.50 942.50Q773 1055 647 1055L538 1055L538 801Z"  horiz-adv-x="1391" vert-adv-y="2048"  />

      
      <glyph glyph-name="unif0" unicode="&#xf0;" d="M366 1196L517 1263Q471 1300 339 1335L409 1455Q566 1423 716 1359L930 1455L996 1329L853 1266Q985 1171 1075 978Q1165 785 1165 573Q1165 276 1011.50 127.50Q858-21 625-21Q351-21 203 140Q55 301 55 507Q55 713 197.50 862Q340 1011 537 1011Q664 1011 745 949Q709 1073 626 1165L425 1076L366 1196M606 767Q535 767 505 702Q475 637 475 495Q475 357 504 289Q533 221 607 221Q685 221 713 295Q741 369 741 496Q741 767 606 767Z"  horiz-adv-x="1216" vert-adv-y="2048"  />

      
      <glyph glyph-name="unidd" unicode="&#xdd;" d="M1252 1365L825 578L825 0L418 0L418 578L-41 1365L418 1365L657 916L886 1365L1252 1365M453 1619L910 1843L983 1648L505 1482L453 1619Z"  horiz-adv-x="1211" vert-adv-y="2048"  />

      
      <glyph glyph-name="unifd" unicode="&#xfd;" d="M1055 1017L656-85Q610-210 524-280.50Q438-351 259-351Q216-351 59-342L59-59Q137-71 203-71Q375-71 375 5Q375 30 358 74L-7 1017L420 1017L588 475L764 1017L1055 1017M347 1298L804 1522L877 1327L399 1161L347 1298Z"  horiz-adv-x="1049" vert-adv-y="2048"  />

      
      <glyph glyph-name="unide" unicode="&#xde;" d="M544 0L119 0L119 1365L544 1365L544 1174L702 1174Q920 1174 1034 1124Q1148 1074 1214 971Q1280 868 1280 740Q1280 544 1144 424Q1008 304 781 304L544 304L544 0M538 598L678 598Q863 598 863 734Q863 861 692 861L538 861L538 598Z"  horiz-adv-x="1331" vert-adv-y="2048"  />

      
      <glyph glyph-name="unife" unicode="&#xfe;" d="M504-321L105-321L105 1365L501 1365L501 896Q570 1038 760 1038Q937 1038 1042 900Q1147 762 1147 511Q1147 267 1041.50 123Q936-21 763-21Q593-21 504 109L504-321M504 372Q504 304 535 266.50Q566 229 612 229Q684 229 711 295.50Q738 362 738 500Q738 659 707 723.50Q676 788 614 788Q577 788 540.50 759Q504 730 504 664L504 372Z"  horiz-adv-x="1201" vert-adv-y="2048"  />

      
      <glyph glyph-name="uni2212" unicode="&#x2212;" d="M1098 816L1098 563L103 563L103 816L1098 816Z"  horiz-adv-x="1201" vert-adv-y="2048"  />

      
      <glyph glyph-name="unid7" unicode="&#xd7;" d="M882 1159L1062 979L781 699L1062 418L882 238L601 519L320 238L140 418L421 699L140 979L320 1159L601 879L882 1159Z"  horiz-adv-x="1201" vert-adv-y="2048"  />

      
      <glyph glyph-name="unib9" unicode="&#xb9;" d="M569 737L751 737L751 546L112 546L112 737L304 737L304 1108Q188 1060 109 1050L109 1243Q303 1282 368 1378L569 1378L569 737Z"  horiz-adv-x="792" vert-adv-y="2048"  />

      
      <glyph glyph-name="unib2" unicode="&#xb2;" d="M736 755L726 546L39 546L39 740L193 838Q460 1008 460 1106Q460 1185 379 1185Q283 1185 274 1044L39 1086Q64 1234 163.50 1306Q263 1378 398 1378Q545 1378 637.50 1305.50Q730 1233 730 1114Q730 1032 680.50 962.50Q631 893 404 755L736 755Z"  horiz-adv-x="792" vert-adv-y="2048"  />

      
      <glyph glyph-name="unib3" unicode="&#xb3;" d="M15 803L258 831Q275 720 384 720Q489 720 489 803Q489 882 376 882L263 882L263 1049L359 1049Q468 1049 468 1120Q468 1192 379 1192Q291 1192 273 1099L47 1131Q75 1250 172.50 1314Q270 1378 402 1378Q551 1378 640.50 1314Q730 1250 730 1145Q730 1021 610 974Q756 926 756 784Q756 664 657 599Q558 534 401 534Q85 534 15 803Z"  horiz-adv-x="792" vert-adv-y="2048"  />

      
      <glyph glyph-name="unibd" unicode="&#xbd;" d="M490 737L644 737L644 546L33 546L33 737L225 737L225 1108Q109 1060 30 1050L30 1243Q224 1282 289 1378L490 1378L490 737M1411 1365L582 0L365 0L1200 1365L1411 1365M1771 209L1761 0L1074 0L1074 194L1228 292Q1349 370 1422 437.50Q1495 505 1495 559Q1495 639 1414 639Q1318 639 1309 498L1074 540Q1099 688 1198 760Q1297 832 1433 832Q1581 832 1673 760Q1765 688 1765 568Q1765 487 1716 417Q1667 347 1439 209L1771 209Z"  horiz-adv-x="1802" vert-adv-y="2048"  />

      
      <glyph glyph-name="unibc" unicode="&#xbc;" d="M477 737L618 737L618 546L20 546L20 737L212 737L212 1108Q96 1060 17 1050L17 1243Q211 1282 276 1378L477 1378L477 737M1384 1365L555 0L339 0L1173 1365L1384 1365M1786 177L1660 177L1660 0L1412 0L1412 177L1042 177L1042 361L1379 831L1660 831L1660 365L1786 365L1786 177M1434 344L1434 641L1222 344L1434 344Z"  horiz-adv-x="1802" vert-adv-y="2048"  />

      
      <glyph glyph-name="unibe" unicode="&#xbe;" d="M-5 803L238 831Q255 720 364 720Q469 720 469 803Q469 882 356 882L243 882L243 1049L339 1049Q448 1049 448 1120Q448 1192 359 1192Q271 1192 253 1099L27 1131Q55 1250 152.50 1314Q250 1378 382 1378Q531 1378 620.50 1314Q710 1250 710 1145Q710 1021 590 974Q736 926 736 784Q736 664 637 599Q538 534 381 534Q65 534-5 803M1469 1365L639 0L423 0L1258 1365L1469 1365M1802 177L1676 177L1676 0L1428 0L1428 177L1058 177L1058 361L1395 831L1676 831L1676 365L1802 365L1802 177M1450 344L1450 641L1238 344L1450 344Z"  horiz-adv-x="1802" vert-adv-y="2048"  />

      
      <glyph glyph-name="uni011E" unicode="&#x011E;" d="M1298 765L1298 0L1093 0Q1068 85 1038 143Q911-21 662-21Q398-21 228 163.50Q58 348 58 663Q58 969 222.50 1177.50Q387 1386 712 1386Q956 1386 1105 1262Q1254 1138 1298 910L892 870Q862 1083 705 1083Q499 1083 499 691Q499 454 565 378.50Q631 303 725 303Q801 303 854.50 349Q908 395 909 475L683 475L683 765L1298 765M904 1816L1080 1816Q1045 1663 943 1582.50Q841 1502 717 1502Q595 1502 493 1579Q391 1656 352 1816L528 1816Q597 1674 718 1674Q840 1674 904 1816Z"  horiz-adv-x="1400" vert-adv-y="2048"  />

      
      <glyph glyph-name="uni011F" unicode="&#x011F;" d="M1165 1174L1155 901L1136 902Q1082 905 1059 905Q966 905 947 868Q1061 774 1061 641Q1061 485 937.50 406.50Q814 328 602 328Q597 328 550 330Q506 332 504 332Q407 332 407 282Q407 238 493 235L820 221Q999 213 1082.50 121Q1166 29 1166-94Q1166-240 1041.50-332.50Q917-425 557-425Q2-425 2-170Q2-31 149 24Q54 91 54 183Q54 333 249 409Q86 480 86 645Q86 796 218 880Q350 964 580 964Q685 964 771 943Q806 1182 1024 1182Q1074 1182 1165 1174M581 517Q697 517 697 640Q697 766 578 766Q460 766 460 638Q460 517 581 517M479-61Q457-60 435-60Q332-60 332-124Q332-183 410.50-200Q489-217 620-217Q744-217 779.50-196Q815-175 815-138Q815-112 799-94.50Q783-77 723-74L479-61M711 1495L887 1495Q852 1342 750 1261.50Q648 1181 524 1181Q402 1181 300 1258Q198 1335 159 1495L335 1495Q404 1353 525 1353Q647 1353 711 1495Z"  horiz-adv-x="1166" vert-adv-y="2048"  />

      
      <glyph glyph-name="uni0130" unicode="&#x0130;" d="M538 1365L538 0L119 0L119 1365L538 1365M329 1508Q273 1508 232.50 1548Q192 1588 192 1644Q192 1700 232 1739.50Q272 1779 328 1779Q385 1779 425 1739.50Q465 1700 465 1644Q465 1587 425 1547.50Q385 1508 329 1508Z"  horiz-adv-x="657" vert-adv-y="2048"  />

      
      <glyph glyph-name="uni015E" unicode="&#x015E;" d="M630-18L600-105Q621-103 636-103Q706-103 749-148.50Q792-194 792-262Q792-346 729-392Q666-438 566-438Q445-438 329-368L368-283Q453-330 531-330Q615-330 615-262Q615-218 572-199Q529-180 481-180Q471-180 452-181L514-18Q74 20-22 395L368 465Q418 300 619 300Q777 300 777 384Q777 428 740.50 452.50Q704 477 610 496Q251 565 149 676Q47 787 47 937Q47 1130 193.50 1258Q340 1386 615 1386Q1032 1386 1166 1051L819 946Q765 1083 600 1083Q463 1083 463 998Q463 960 494 939Q525 918 614 899Q856 848 960.50 808Q1065 768 1134 671Q1203 574 1203 444Q1203 248 1049.50 120Q896-8 630-18Z"  horiz-adv-x="1244" vert-adv-y="2048"  />

      
      <glyph glyph-name="uni015F" unicode="&#x015F;" d="M581-19L551-100Q572-99 586-99Q653-99 694.50-142.50Q736-186 736-251Q736-332 676-376Q616-420 520-420Q402-420 292-354L330-272Q413-317 486-317Q566-317 566-252Q566-173 437-173Q428-173 409-174L468-19Q105 4 15 288L330 331Q357 221 544 221Q699 221 699 281Q699 307 669 321.50Q639 336 527 351Q248 389 155.50 470Q63 551 63 689Q63 845 193 941.50Q323 1038 534 1038Q904 1038 1006 771L704 714Q662 804 527 804Q469 804 434.50 788Q400 772 400 752Q400 702 496 691Q746 663 835 634Q924 605 987 528Q1050 451 1050 342Q1050 189 930.50 91.50Q811-6 581-19Z"  horiz-adv-x="1085" vert-adv-y="2048"  />

      
      <glyph glyph-name="uni0106" unicode="&#x0106;" d="M870 521L1253 498Q1226 247 1067.50 113Q909-21 678-21Q400-21 229 163Q58 347 58 671Q58 992 220 1189Q382 1386 672 1386Q943 1386 1088.50 1236Q1234 1086 1253 838L862 817Q862 954 809.50 1015Q757 1076 686 1076Q488 1076 488 678Q488 455 539.50 375Q591 295 684 295Q850 295 870 521M493 1619L950 1843L1023 1648L545 1482L493 1619Z"  horiz-adv-x="1287" vert-adv-y="2048"  />

      
      <glyph glyph-name="uni0107" unicode="&#x0107;" d="M718 410L1058 381Q1034 203 908.50 91Q783-21 575-21Q342-21 196.50 125.50Q51 272 51 501Q51 735 195.50 886.50Q340 1038 571 1038Q776 1038 905 923.50Q1034 809 1053 634L704 605Q682 766 582 766Q518 766 488.50 707.50Q459 649 459 504Q459 379 488.50 319Q518 259 591 259Q698 259 718 410M377 1298L834 1522L907 1327L429 1161L377 1298Z"  horiz-adv-x="1071" vert-adv-y="2048"  />

      
      <glyph glyph-name="uni010C" unicode="&#x010C;" d="M870 521L1253 498Q1226 247 1067.50 113Q909-21 678-21Q400-21 229 163Q58 347 58 671Q58 992 220 1189Q382 1386 672 1386Q943 1386 1088.50 1236Q1234 1086 1253 838L862 817Q862 954 809.50 1015Q757 1076 686 1076Q488 1076 488 678Q488 455 539.50 375Q591 295 684 295Q850 295 870 521M285 1800L517 1820L686 1690L856 1820L1088 1800L686 1482L285 1800Z"  horiz-adv-x="1287" vert-adv-y="2048"  />

      
      <glyph glyph-name="uni010D" unicode="&#x010D;" d="M718 410L1058 381Q1034 203 908.50 91Q783-21 575-21Q342-21 196.50 125.50Q51 272 51 501Q51 735 195.50 886.50Q340 1038 571 1038Q776 1038 905 923.50Q1034 809 1053 634L704 605Q682 766 582 766Q518 766 488.50 707.50Q459 649 459 504Q459 379 488.50 319Q518 259 591 259Q698 259 718 410M182 1479L414 1499L583 1369L753 1499L985 1479L583 1161L182 1479Z"  horiz-adv-x="1071" vert-adv-y="2048"  />

      
      <glyph glyph-name="uni0111" unicode="&#x0111;" d="M1097 0L723 0L723 135Q640-21 449-21Q257-21 155.50 128Q54 277 54 498Q54 738 163.50 883Q273 1028 456 1028Q606 1028 704 914L704 1096L461 1096L461 1274L704 1274L704 1365L1097 1365L1097 1274L1203 1274L1203 1096L1097 1096L1097 0M704 634Q704 770 591 770Q463 770 463 486Q463 244 590 244Q638 244 671 283Q704 322 704 402L704 634Z"  horiz-adv-x="1203" vert-adv-y="2048"  />

      
      <glyph glyph-name="uniad" unicode="&#xad;" d="M535 673L535 359L28 359L28 673L535 673Z"  horiz-adv-x="563" vert-adv-y="2048"  />

      
      <glyph glyph-name="uniaf" unicode="&#xaf;" d="M0 1830L1024 1830L1024 1591L0 1591L0 1830Z"  horiz-adv-x="1024" vert-adv-y="2048"  />

      
      <glyph glyph-name="unib7" unicode="&#xb7;" d="M380 698L380 333L0 333L0 698L380 698Z"  horiz-adv-x="380" vert-adv-y="2048"  />

      
      <glyph glyph-name="uni0100" unicode="&#x0100;" d="M872 0L795 269L429 269L347 0L7 0L429 1365L872 1365L1299 0L872 0M500 567L722 567L611 963L500 567M327 1547L327 1702L974 1702L974 1547L327 1547Z"  horiz-adv-x="1306" vert-adv-y="2048"  />

      
      <glyph glyph-name="uni0101" unicode="&#x0101;" d="M1130 0L750 0Q736 65 736 142Q628-21 409-21Q229-21 139.50 71Q50 163 50 282Q50 443 196.50 542.50Q343 642 716 662L716 685Q716 752 685.50 774Q655 796 596 796Q458 796 442 685L78 719Q156 1038 609 1038Q732 1038 835 1013.50Q938 989 998 937Q1058 885 1078.50 827Q1099 769 1099 604L1099 198Q1099 82 1130 0M716 476Q461 449 461 313Q461 221 562 221Q626 221 671 259Q716 297 716 427L716 476M297 1208L297 1363L944 1363L944 1208L297 1208Z"  horiz-adv-x="1201" vert-adv-y="2048"  />

      
      <glyph glyph-name="uni0102" unicode="&#x0102;" d="M872 0L795 269L429 269L347 0L7 0L429 1365L872 1365L1299 0L872 0M500 567L722 567L611 963L500 567M839 1816L1015 1816Q980 1663 878 1582.50Q776 1502 652 1502Q530 1502 428 1579Q326 1656 287 1816L463 1816Q532 1674 653 1674Q775 1674 839 1816Z"  horiz-adv-x="1306" vert-adv-y="2048"  />

      
      <glyph glyph-name="uni0103" unicode="&#x0103;" d="M1130 0L750 0Q736 65 736 142Q628-21 409-21Q229-21 139.50 71Q50 163 50 282Q50 443 196.50 542.50Q343 642 716 662L716 685Q716 752 685.50 774Q655 796 596 796Q458 796 442 685L78 719Q156 1038 609 1038Q732 1038 835 1013.50Q938 989 998 937Q1058 885 1078.50 827Q1099 769 1099 604L1099 198Q1099 82 1130 0M716 476Q461 449 461 313Q461 221 562 221Q626 221 671 259Q716 297 716 427L716 476M813 1495L989 1495Q954 1342 852 1261.50Q750 1181 626 1181Q504 1181 402 1258Q300 1335 261 1495L437 1495Q506 1353 627 1353Q749 1353 813 1495Z"  horiz-adv-x="1201" vert-adv-y="2048"  />

      
      <glyph glyph-name="uni0104" unicode="&#x0104;" d="M1299 0Q1159-78 1159-171Q1159-265 1271-265Q1313-265 1367-246L1387-336Q1302-376 1196-376Q1070-376 1020.50-325Q971-274 971-212Q971-86 1142 0L872 0L795 269L429 269L347 0L7 0L429 1365L872 1365L1299 0M500 567L722 567L611 963L500 567Z"  horiz-adv-x="1306" vert-adv-y="2048"  />

      
      <glyph glyph-name="uni0105" unicode="&#x0105;" d="M1130 0Q995-75 995-164Q995-254 1102-254Q1143-254 1194-236L1214-321Q1131-361 1031-361Q916-361 865-314.50Q814-268 814-203Q814-82 979 0L750 0Q736 65 736 142Q628-21 409-21Q229-21 139.50 71Q50 163 50 282Q50 443 196.50 542.50Q343 642 716 662L716 685Q716 752 685.50 774Q655 796 596 796Q458 796 442 685L78 719Q156 1038 609 1038Q732 1038 835 1013.50Q938 989 998 937Q1058 885 1078.50 827Q1099 769 1099 604L1099 198Q1099 82 1130 0M716 476Q461 449 461 313Q461 221 562 221Q626 221 671 259Q716 297 716 427L716 476Z"  horiz-adv-x="1201" vert-adv-y="2048"  />

      
      <glyph glyph-name="uni0108" unicode="&#x0108;" d="M870 521L1253 498Q1226 247 1067.50 113Q909-21 678-21Q400-21 229 163Q58 347 58 671Q58 992 220 1189Q382 1386 672 1386Q943 1386 1088.50 1236Q1234 1086 1253 838L862 817Q862 954 809.50 1015Q757 1076 686 1076Q488 1076 488 678Q488 455 539.50 375Q591 295 684 295Q850 295 870 521M1088 1516L856 1495L686 1625L517 1495L285 1516L686 1834L1088 1516Z"  horiz-adv-x="1287" vert-adv-y="2048"  />

      
      <glyph glyph-name="uni0109" unicode="&#x0109;" d="M718 410L1058 381Q1034 203 908.50 91Q783-21 575-21Q342-21 196.50 125.50Q51 272 51 501Q51 735 195.50 886.50Q340 1038 571 1038Q776 1038 905 923.50Q1034 809 1053 634L704 605Q682 766 582 766Q518 766 488.50 707.50Q459 649 459 504Q459 379 488.50 319Q518 259 591 259Q698 259 718 410M984 1195L752 1174L582 1304L413 1174L181 1195L582 1513L984 1195Z"  horiz-adv-x="1071" vert-adv-y="2048"  />

      
      <glyph glyph-name="uni010A" unicode="&#x010A;" d="M870 521L1253 498Q1226 247 1067.50 113Q909-21 678-21Q400-21 229 163Q58 347 58 671Q58 992 220 1189Q382 1386 672 1386Q943 1386 1088.50 1236Q1234 1086 1253 838L862 817Q862 954 809.50 1015Q757 1076 686 1076Q488 1076 488 678Q488 455 539.50 375Q591 295 684 295Q850 295 870 521M687 1508Q631 1508 590.50 1548Q550 1588 550 1644Q550 1700 590 1739.50Q630 1779 686 1779Q743 1779 783 1739.50Q823 1700 823 1644Q823 1587 783 1547.50Q743 1508 687 1508Z"  horiz-adv-x="1287" vert-adv-y="2048"  />

      
      <glyph glyph-name="uni010B" unicode="&#x010B;" d="M718 410L1058 381Q1034 203 908.50 91Q783-21 575-21Q342-21 196.50 125.50Q51 272 51 501Q51 735 195.50 886.50Q340 1038 571 1038Q776 1038 905 923.50Q1034 809 1053 634L704 605Q682 766 582 766Q518 766 488.50 707.50Q459 649 459 504Q459 379 488.50 319Q518 259 591 259Q698 259 718 410M585 1188Q529 1188 488.50 1228Q448 1268 448 1324Q448 1380 488 1419.50Q528 1459 584 1459Q641 1459 681 1419.50Q721 1380 721 1324Q721 1267 681 1227.50Q641 1188 585 1188Z"  horiz-adv-x="1071" vert-adv-y="2048"  />

      
      <glyph glyph-name="uni010E" unicode="&#x010E;" d="M119 0L119 1365L647 1365Q991 1365 1162 1161Q1333 957 1333 689Q1333 383 1149.50 191.50Q966 0 673 0L119 0M538 314L647 314Q751 314 822.50 415Q894 516 894 690Q894 839 830.50 947Q767 1055 647 1055L538 1055L538 314M229 1800L461 1820L630 1690L800 1820L1032 1800L630 1482L229 1800Z"  horiz-adv-x="1391" vert-adv-y="2048"  />

      
      <glyph glyph-name="uni010F" unicode="&#x010F;" d="M1098 0L724 0L724 135Q641-21 450-21Q274-21 164.50 116.50Q55 254 55 516Q55 761 165 905Q275 1049 456 1049Q607 1049 705 934L705 1365L1098 1365L1098 0M705 654Q705 791 592 791Q513 791 488.50 704Q464 617 464 491Q464 244 590 244Q638 244 671.50 283Q705 322 705 402L705 654M1459 1365L1318 944L1211 944L1235 1365L1459 1365Z"  horiz-adv-x="1458" vert-adv-y="2048"  />

      
      <glyph glyph-name="uni0110" unicode="&#x0110;" d="M119 1365L647 1365Q991 1365 1162 1161Q1333 957 1333 689Q1333 383 1149.50 191.50Q966 0 674 0L119 0L119 601L7 601L7 801L119 801L119 1365M538 801L733 801L733 601L538 601L538 314L647 314Q751 314 822.50 415Q894 516 894 690Q894 830 833.50 942.50Q773 1055 647 1055L538 1055L538 801Z"  horiz-adv-x="1391" vert-adv-y="2048"  />

      
      <glyph glyph-name="uni0112" unicode="&#x0112;" d="M1146 326L1146 0L119 0L119 1365L1146 1365L1146 1050L530 1050L530 852L1028 852L1028 549L530 549L530 326L1146 326M309 1547L309 1702L956 1702L956 1547L309 1547Z"  horiz-adv-x="1193" vert-adv-y="2048"  />

      
      <glyph glyph-name="uni0113" unicode="&#x0113;" d="M777 365L1149 340Q1116 190 980.50 84.50Q845-21 614-21Q357-21 204 127.50Q51 276 51 496Q51 724 202 881Q353 1038 605 1038Q849 1038 999.50 890Q1150 742 1150 487Q1150 466 1149 429L468 429Q470 333 502 286.50Q534 240 624 240Q754 240 777 365M751 629Q750 732 709.50 767.50Q669 803 609 803Q467 803 467 629L751 629M292 1208L292 1363L939 1363L939 1208L292 1208Z"  horiz-adv-x="1201" vert-adv-y="2048"  />

      
      <glyph glyph-name="uni0114" unicode="&#x0114;" d="M1146 326L1146 0L119 0L119 1365L1146 1365L1146 1050L530 1050L530 852L1028 852L1028 549L530 549L530 326L1146 326M820 1816L996 1816Q961 1663 859 1582.50Q757 1502 633 1502Q511 1502 409 1579Q307 1656 268 1816L444 1816Q513 1674 634 1674Q756 1674 820 1816Z"  horiz-adv-x="1193" vert-adv-y="2048"  />

      
      <glyph glyph-name="uni0115" unicode="&#x0115;" d="M777 365L1149 340Q1116 190 980.50 84.50Q845-21 614-21Q357-21 204 127.50Q51 276 51 496Q51 724 202 881Q353 1038 605 1038Q849 1038 999.50 890Q1150 742 1150 487Q1150 466 1149 429L468 429Q470 333 502 286.50Q534 240 624 240Q754 240 777 365M751 629Q750 732 709.50 767.50Q669 803 609 803Q467 803 467 629L751 629M803 1495L979 1495Q944 1342 842 1261.50Q740 1181 616 1181Q494 1181 392 1258Q290 1335 251 1495L427 1495Q496 1353 617 1353Q739 1353 803 1495Z"  horiz-adv-x="1201" vert-adv-y="2048"  />

      
      <glyph glyph-name="uni0116" unicode="&#x0116;" d="M1146 326L1146 0L119 0L119 1365L1146 1365L1146 1050L530 1050L530 852L1028 852L1028 549L530 549L530 326L1146 326M628 1508Q572 1508 531.50 1548Q491 1588 491 1644Q491 1700 531 1739.50Q571 1779 627 1779Q684 1779 724 1739.50Q764 1700 764 1644Q764 1587 724 1547.50Q684 1508 628 1508Z"  horiz-adv-x="1193" vert-adv-y="2048"  />

      
      <glyph glyph-name="uni0117" unicode="&#x0117;" d="M777 365L1149 340Q1116 190 980.50 84.50Q845-21 614-21Q357-21 204 127.50Q51 276 51 496Q51 724 202 881Q353 1038 605 1038Q849 1038 999.50 890Q1150 742 1150 487Q1150 466 1149 429L468 429Q470 333 502 286.50Q534 240 624 240Q754 240 777 365M751 629Q750 732 709.50 767.50Q669 803 609 803Q467 803 467 629L751 629M616 1188Q560 1188 519.50 1228Q479 1268 479 1324Q479 1380 519 1419.50Q559 1459 615 1459Q672 1459 712 1419.50Q752 1380 752 1324Q752 1267 712 1227.50Q672 1188 616 1188Z"  horiz-adv-x="1201" vert-adv-y="2048"  />

      
      </font>
</defs>
</svg>
