<svg width="450" height="366" viewBox="0 0 450 366" fill="none" xmlns="http://www.w3.org/2000/svg">
<path d="M0.65332 219.474C10.16 215.127 19.6266 210.674 29.2 206.46C46.6666 198.754 64.1466 191.074 81.72 183.647C89.7026 180.312 98.1904 178.347 106.827 177.834C119.787 176.994 131.533 180.82 142.627 187.167C158.455 196.515 173.685 206.842 188.227 218.087C206.44 231.834 227.027 239.3 249.28 242.314C256.426 243.287 263.76 242.86 271.013 243.034C280.706 243.26 290.4 243.367 299.96 245.327C301.013 245.54 302.026 245.847 303.053 246.154C308.386 247.7 311.906 250.834 312.72 256.607C313.613 262.807 311.973 267.9 306.56 271.407C300.426 275.407 293.52 276.914 286.413 277.7C283.454 277.992 280.48 278.116 277.506 278.074C257.947 278.074 238.387 277.714 218.84 278.207C199.773 278.674 181.507 275.1 163.56 269.114C158.587 267.46 153.653 265.66 148.453 264.22C150.36 266.02 152.227 267.874 154.187 269.554C165.12 279.207 176.853 287.5 190.76 292.394C196.815 294.554 203.198 295.65 209.627 295.634C233.627 295.634 257.626 295.634 281.626 295.634C291.909 295.701 302.066 293.373 311.293 288.834C319.2 284.834 325.56 279.354 328.626 270.687C333.04 258.367 329.24 242.687 320.066 235.34C314 230.514 306.8 228.527 299.36 227.34C286.4 225.234 273.333 225.5 260.267 225.394C257.013 225.394 253.747 224.94 250.013 224.674C250.311 224.27 250.65 223.899 251.026 223.567C264.48 215.567 277.826 207.247 291.44 199.487C297.026 196.344 302.902 193.745 308.986 191.727C319.8 188.087 329.106 191.1 336.666 199.727C337.226 200.367 337.786 201.06 338.333 201.634L339.893 203.487C340.493 202.994 341 202.567 341.493 202.154C346.382 197.65 352.241 194.332 358.618 192.455C364.994 190.577 371.717 190.191 378.266 191.327C388.933 192.967 393.906 200.34 392.826 211.527L394.853 210.42C402.68 206.02 410.76 202.22 419.72 200.807C429.813 199.207 439.026 200.807 445.64 209.567C447.533 212.06 448.493 215.274 449.88 218.154V223.247C447.413 231.794 441.546 237.754 434.946 243.127C432.52 245.114 430.013 247.02 427.4 248.767C390.573 273.434 353.813 298.22 316.84 322.647C298.453 334.794 279.72 346.42 260.973 358.007C251.715 363.863 240.817 366.58 229.893 365.754C220.493 365.027 211.333 362.434 202.947 358.127C182.067 347.594 161.333 336.794 140.547 326.127C130.08 320.794 119.653 315.274 109.093 310.127C98.9199 305.1 88.8933 305.594 79.2533 311.807C77.6533 312.847 76 313.807 74.3866 314.86L50.2533 330.687C49.8533 329.86 49.52 329.194 49.2133 328.5C37.3111 301.834 25.4 275.167 13.48 248.5C9.23997 239.034 4.94668 229.594 0.680013 220.14L0.65332 219.474Z" fill="white"/>
<path d="M234.547 186.915C202.8 186.915 176.787 160.728 176.773 128.648C176.881 117.258 180.357 106.155 186.762 96.7363C193.167 87.3176 202.216 80.0046 212.769 75.7181C223.322 71.4315 234.907 70.3629 246.066 72.6471C257.225 74.9313 267.458 80.466 275.478 88.5543C283.498 96.6426 288.945 106.923 291.135 118.101C293.324 129.279 292.157 140.854 287.781 151.371C283.405 161.887 276.015 170.873 266.542 177.198C257.069 183.523 245.937 186.904 234.547 186.915ZM225.867 119.915V154.901H243.04V102.288C238.707 102.288 234.533 102.288 230.347 102.288C229.617 102.434 228.959 102.825 228.48 103.395C223.48 108.381 218.533 113.408 213.573 118.435C213.209 118.887 212.884 119.368 212.6 119.875L225.867 119.915Z" fill="white"/>
<path d="M304.2 0.0605469C314.347 0.0920337 324.112 3.93721 331.556 10.8332C339.001 17.7291 343.58 27.1717 344.387 37.2871C345.893 59.2337 330.907 78.0071 309.533 81.0205C306.093 81.5138 303.667 81.0205 301.293 77.7539C292.595 65.785 280.734 56.4769 267.04 50.8738C266.369 50.6382 265.782 50.2129 265.349 49.6495C264.916 49.0862 264.655 48.409 264.6 47.7005C263.546 41.8904 263.778 35.92 265.279 30.2091C266.781 24.4983 269.515 19.1858 273.289 14.6448C277.064 10.1039 281.787 6.44493 287.127 3.92529C292.468 1.40565 298.295 0.0865246 304.2 0.0605469ZM310.2 22.5138C304.64 21.7538 299.693 21.7272 296 26.9005C294.107 29.5672 291.293 31.5538 288.893 33.8471L289.307 34.4871H298.133V58.8338H310.133L310.2 22.5138Z" fill="white"/>
</svg>
