<svg width="515" height="455" viewBox="0 0 515 455" fill="none" xmlns="http://www.w3.org/2000/svg">
<path d="M428.919 355.941C430.665 354.194 432.105 352.821 433.492 351.381C451.172 333.026 468.843 314.648 486.505 296.248C489.905 292.701 493.745 290.568 498.505 290.501C501.711 290.413 504.864 291.33 507.522 293.123C510.181 294.916 512.212 297.496 513.332 300.501C514.56 303.526 514.871 306.846 514.226 310.047C513.581 313.247 512.009 316.187 509.705 318.501C499.119 329.688 488.372 340.768 477.799 351.834C453.452 377.23 429.114 402.63 404.785 428.034C392.865 440.501 379.092 449.368 362.652 452.581C332.865 458.408 306.866 449.541 284.746 427.568C273.557 416.594 264.858 403.344 259.239 388.714C252.452 370.888 252.052 352.568 255.572 333.954C258.932 316.221 265.119 299.554 271.932 283.141C278.265 267.914 283.185 252.208 285.119 235.608C286.212 226.274 286.452 216.781 287.172 207.368C287.345 205.088 287.519 202.821 287.839 200.568C288.292 197.381 290.279 195.621 293.079 195.661C296.308 195.514 299.538 195.929 302.625 196.888C314.945 201.608 321.759 211.421 323.465 225.314C324.212 233.056 323.512 240.869 321.399 248.354C319.892 254.341 318.879 260.474 317.532 267.021C319.945 266.768 320.772 265.288 321.785 264.248C348.123 236.915 374.443 209.572 400.745 182.221C402.172 180.741 403.545 179.208 405.079 177.861C406.8 176.288 408.826 175.086 411.031 174.329C413.236 173.571 415.573 173.275 417.898 173.459C420.222 173.643 422.484 174.303 424.542 175.397C426.601 176.491 428.413 177.997 429.865 179.821C432.641 183.343 434.05 187.751 433.832 192.23C433.614 196.709 431.784 200.959 428.679 204.195C420.679 212.621 412.679 220.888 404.599 229.221C390.376 243.995 376.154 258.777 361.932 273.568C361.052 274.488 360.239 275.514 359.079 276.848L370.265 281.514C371.599 280.181 373.079 278.701 374.479 277.248C399.27 251.47 424.056 225.692 448.839 199.915C451.493 196.851 454.989 194.635 458.892 193.541C462.622 192.619 466.555 193.005 470.034 194.633C473.514 196.261 476.33 199.034 478.012 202.488C479.825 206 480.47 209.999 479.853 213.902C479.237 217.806 477.392 221.412 474.585 224.194C462.039 237.341 449.399 250.381 436.785 263.474C425.399 275.297 414.012 287.114 402.625 298.928C401.625 299.968 400.505 300.874 399.612 301.674L407.719 310.074C408.199 309.621 409.345 308.621 410.385 307.514C432.145 284.946 453.896 262.355 475.639 239.741C478.582 236.354 482.677 234.178 487.132 233.634C490.82 233.213 494.545 234.018 497.731 235.924C500.916 237.83 503.386 240.732 504.759 244.181C506.245 247.596 506.658 251.382 505.944 255.037C505.229 258.692 503.421 262.044 500.759 264.648C477.016 289.394 453.243 314.105 429.439 338.781C429.155 339.118 428.843 339.431 428.505 339.714C425.559 341.821 425.119 344.461 426.585 347.901C427.518 350.534 428.297 353.218 428.919 355.941Z" fill="white"/>
<path d="M233.732 357.141L151.065 281.461L163.265 266.954C149.132 260.141 113.785 257.834 83.7853 278.514C80.8653 273.981 77.9186 269.434 74.8387 264.687C81.8685 259.543 89.5716 255.389 97.732 252.341C122.345 243.007 147.065 242.554 171.905 251.314C174.945 252.381 176.652 251.741 178.758 249.274C214.714 207.389 250.714 165.563 286.758 123.794C287.798 122.581 288.812 121.341 290.265 119.607C245.158 96.2873 198.078 85.0207 148.585 85.6207C99.0919 86.2207 52.5054 98.7408 8.22542 123.407C5.55875 118.447 3.13211 113.741 0.412109 108.554C46.2351 82.4202 98.0604 68.6368 150.812 68.5541C203.594 68.3141 253.852 80.9496 301.585 106.461L321.265 83.794L394.185 149.447L379.865 166.594L323.185 115.607C276.119 170.274 229.252 224.581 182.052 279.327C183.385 280.661 184.612 281.861 185.852 283.007C201.452 297.287 216.999 311.621 232.692 325.767C235.465 328.26 236.692 330.434 235.812 334.594C234.639 340.674 234.479 346.994 233.985 353.26C233.919 354.247 233.865 355.261 233.732 357.141Z" fill="white"/>
<path d="M498.918 76.8747C497.651 77.7302 496.313 78.4751 494.918 79.1013C491.678 80.128 488.398 81.0347 485.118 81.8747C475.611 84.2881 469.585 90.5947 466.945 100.741C466.025 104.261 465.025 107.755 464.105 111.261C463.745 112.595 463.438 114.048 461.758 113.928C460.078 113.808 459.971 112.395 459.625 111.021C458.371 106.035 457.118 101.048 455.625 96.1146C454.853 93.0365 453.296 90.2112 451.106 87.9141C448.917 85.617 446.169 83.9267 443.131 83.008C438.691 81.568 434.158 80.4614 429.678 79.2081C428.837 79.1364 428.015 78.9152 427.251 78.5547C426.605 78.0287 426.185 77.2746 426.078 76.448C426.133 76.1071 426.271 75.7851 426.48 75.5106C426.69 75.2361 426.964 75.0177 427.278 74.8747C428.611 74.3947 430.038 74.2748 431.398 73.9014C435.625 72.7548 439.851 71.6747 444.025 70.3414C446.411 69.5773 448.584 68.2634 450.37 66.5056C452.155 64.7478 453.503 62.5954 454.305 60.2214C456.038 55.5814 457.371 50.768 458.825 46.008C459.211 44.6747 459.211 43.2481 459.705 42.0081C460.105 41.0081 460.851 39.7014 461.665 39.488C463.198 39.1014 463.678 40.6481 464.051 42.0214C465.038 45.6747 466.131 49.288 467.091 52.9547C469.9 63.6213 476.331 70.0791 486.385 72.328C489.411 72.9947 492.438 73.6614 495.425 74.5814C496.682 75.1933 497.856 75.964 498.918 76.8747Z" fill="white"/>
<path d="M191.052 364.248C189.719 365.581 189.199 366.448 188.385 366.768C186.825 367.421 185.105 367.648 183.519 368.234C178.999 369.888 174.452 371.514 170.012 373.394C167.841 374.335 165.898 375.733 164.317 377.493C162.736 379.254 161.554 381.335 160.852 383.594C159.332 387.994 158.185 392.568 156.852 397.074C156.692 397.648 156.692 398.274 156.559 398.861C156.212 400.341 155.932 402.274 154.132 401.914C153.265 401.728 152.359 400.168 151.999 399.034C150.665 394.861 149.665 390.581 148.452 386.381C146.279 378.834 141.652 373.861 134.746 371.421C130.612 369.968 126.399 368.754 122.226 367.421C120.706 366.914 118.359 367.194 118.465 364.754C118.572 362.314 120.839 362.688 122.465 362.221C127.345 360.781 132.252 359.421 137.066 357.781C139.722 356.866 142.111 355.309 144.021 353.248C145.931 351.187 147.302 348.686 148.012 345.968C149.465 341.221 150.679 336.354 151.906 331.528C152.106 330.794 151.905 329.861 152.345 329.328C152.854 328.539 153.623 327.954 154.519 327.674C155.012 327.594 155.999 328.594 156.172 329.288C156.785 331.621 157.039 334.075 157.625 336.421C158.465 339.795 159.345 343.168 160.425 346.461C161.056 348.745 162.204 350.854 163.781 352.623C165.358 354.392 167.321 355.774 169.519 356.661C175.199 358.834 181.065 360.434 186.852 362.341C188.284 362.903 189.686 363.539 191.052 364.248Z" fill="white"/>
<path d="M179.559 0.900716C179.998 2.2526 180.341 3.63378 180.585 5.03401C181.679 15.7007 187.079 21.8072 196.825 23.6072C198.929 24.0805 201.007 24.6591 203.052 25.3406V26.3139C202.37 26.9193 201.612 27.4347 200.799 27.8473C197.865 28.8873 194.879 29.754 191.932 30.754C186.599 32.5407 183.399 36.4339 181.945 42.1406C181.425 44.1939 180.999 46.2739 180.439 48.3139C180.145 49.3673 179.639 50.3539 178.852 52.3139C178.217 51.2126 177.651 50.0727 177.159 48.9007C176.265 46.0207 175.519 43.0873 174.612 40.194C174.032 38.0583 172.945 36.0944 171.443 34.4694C169.941 32.8443 168.069 31.6063 165.985 30.8607C163.185 29.834 160.345 28.9673 157.532 28.0073C156.519 27.6606 155.532 27.234 153.679 26.514C154.58 25.7598 155.564 25.1112 156.612 24.5807C159.839 23.5674 163.132 22.7807 166.359 21.7407C168.402 21.0929 170.245 19.9331 171.713 18.3717C173.181 16.8104 174.225 14.8994 174.745 12.8206C175.625 9.94063 176.305 6.98072 177.105 4.07405C177.412 2.98072 177.799 1.91398 178.159 0.833984L179.559 0.900716Z" fill="white"/>
<path d="M33.4656 162.434C33.9691 163.389 34.4143 164.373 34.799 165.381C35.5456 167.675 36.1323 170.008 36.839 172.341C38.7323 179.088 42.9057 183.114 49.2257 184.634C50.7324 184.994 52.2524 185.341 53.7457 185.781C54.8924 186.114 56.0257 186.581 58.0524 187.301C57.1676 188.049 56.2068 188.701 55.1857 189.248C52.119 190.315 48.9857 191.208 45.8524 192.261C43.9001 192.929 42.1335 194.049 40.6968 195.529C39.26 197.01 38.1939 198.81 37.5856 200.781C36.6389 203.448 35.8523 206.248 34.9189 208.968C34.4789 210.301 34.0123 211.634 33.5856 212.968H32.4523C32.0256 211.834 31.4923 210.714 31.119 209.554C30.2923 206.648 29.6258 203.688 28.7458 200.808C28.2013 198.739 27.1454 196.84 25.6753 195.286C24.2051 193.732 22.3678 192.573 20.3323 191.915C17.7857 191.061 15.1723 190.421 12.599 189.661C11.2656 189.288 10.0524 188.848 7.99902 188.181C9.33236 187.154 9.82566 186.448 10.4657 186.274C13.1323 185.514 15.959 184.941 18.6924 184.248C21.1289 183.66 23.3578 182.416 25.1372 180.651C26.9166 178.885 28.1784 176.666 28.7856 174.235C29.599 171.488 30.2924 168.688 31.0791 165.941C31.4258 164.728 31.9057 163.581 32.319 162.395L33.4656 162.434Z" fill="white"/>
</svg>
