<svg width="542" height="338" viewBox="0 0 542 338" fill="none" xmlns="http://www.w3.org/2000/svg">
<path d="M541.746 179.114C538.386 180.848 534.972 182.488 531.666 184.328C508.27 197.394 484.879 210.479 461.492 223.581C460.879 223.914 460.239 224.194 459.399 224.608C429.559 165.292 399.732 106.003 369.919 46.7412L452.292 0.701172C455.399 6.80783 458.439 12.7012 461.452 18.7412C478.946 53.559 496.43 88.3677 513.906 123.168C522.537 140.332 531.172 157.483 539.812 174.621C540.399 175.781 541.146 176.861 541.746 177.981V179.114ZM489.892 171.221C489.775 169.029 489.019 166.919 487.718 165.15C486.416 163.382 484.626 162.034 482.567 161.27C480.509 160.507 478.272 160.362 476.133 160.855C473.993 161.347 472.044 162.454 470.526 164.04C469.008 165.626 467.987 167.621 467.588 169.78C467.19 171.939 467.432 174.168 468.285 176.191C469.137 178.214 470.563 179.944 472.386 181.167C474.209 182.39 476.35 183.053 478.546 183.074C484.599 183.221 489.866 177.714 489.892 171.221Z" fill="white"/>
<path d="M0.31901 182.515C1.86568 179.701 3.50565 176.928 4.95898 174.061C20.2123 143.75 35.4479 113.439 50.6657 83.128C63.2256 58.1414 75.7946 33.1592 88.3723 8.18148C88.8657 7.19481 89.4256 6.22148 90.0656 5.02148L166.986 46.7282C137.159 106.035 107.399 165.181 77.479 224.648C76.519 224.168 75.6523 223.781 74.8123 223.315L2.01237 183.821C1.4657 183.528 0.865664 183.315 0.305664 183.075L0.31901 182.515ZM46.879 170.941C46.8337 174.007 47.9635 176.973 50.0363 179.232C52.109 181.491 54.9677 182.87 58.0257 183.088C63.9323 183.288 69.4123 177.755 69.6123 171.395C69.6467 168.284 68.4716 165.281 66.3348 163.02C64.1981 160.759 61.2667 159.416 58.159 159.275C52.319 159.208 46.999 164.675 46.879 170.941Z" fill="white"/>
<path d="M249.786 103.915C247.119 115.369 245.426 126.795 246.119 138.475C246.746 148.928 249.306 158.702 256.013 166.849C260.689 172.906 267.461 176.996 274.999 178.315C276.959 178.645 278.973 178.367 280.77 177.518C282.568 176.67 284.062 175.292 285.053 173.569C287.821 169.27 290.131 164.694 291.946 159.915C298.026 143.142 303.897 126.253 309.559 109.249C311.007 104.69 312.055 100.015 312.693 95.2752C314.319 84.3818 310.026 75.6219 303.226 67.8352C291.382 54.513 277.792 42.852 262.826 33.1686C262.159 32.7286 261.493 32.2486 260.653 31.6219C266.079 29.2219 271.319 30.1819 276.373 31.4886C299.733 37.5286 323.039 43.782 346.359 50.0486C351.039 51.302 355.692 52.8085 360.252 54.4352C361.651 54.9382 362.831 55.9146 363.586 57.1953C373.852 77.3953 383.973 97.6753 394.159 117.915C408.826 147.062 423.492 176.2 438.159 205.328C438.492 205.982 438.772 206.662 439.172 207.515L422.466 220.569C417.599 216.035 413.306 211.075 408.159 207.462C398.826 200.928 388.839 199.942 379.026 206.595C373.239 210.515 369.946 216.368 368.359 223.342C368.213 223.955 368.026 224.555 367.839 225.209C345.546 210.729 319.199 227.955 321.506 252.142C312.386 250.142 304.706 252.822 298.746 260.249C293.079 267.302 291.319 275.728 291.879 284.782C289.161 284.155 286.404 283.709 283.626 283.448C270.999 283.075 260.813 292.022 259.079 305.195C258.712 309.217 258.686 313.262 258.999 317.288C259.148 318.026 259.045 318.792 258.707 319.464C258.368 320.137 257.814 320.675 257.133 320.995C250.813 324.675 244.293 327.315 236.919 327.088C226.706 326.782 221.999 319.435 219.773 311.502C219.626 310.982 220.386 309.875 220.986 309.462C234.079 300.279 247.195 291.124 260.333 281.995C265.199 278.608 270.079 275.235 274.906 271.795C275.801 271.256 276.511 270.457 276.94 269.504C277.369 268.551 277.496 267.489 277.306 266.462C276.866 264.168 275.466 262.275 273.226 262.142C271.46 262.114 269.731 262.651 268.293 263.675C249.879 276.382 231.626 289.355 213.119 301.928C209.589 304.406 205.572 306.104 201.335 306.909C197.098 307.713 192.738 307.606 188.546 306.595C179.386 304.462 171.893 294.862 171.399 285.022C171.239 281.942 171.959 279.568 174.826 277.728C195.546 264.395 216.159 250.982 236.813 237.622C239.039 236.182 241.199 234.728 241.013 231.622C240.746 227.275 236.519 225.302 232.786 227.715C223.968 233.395 215.164 239.088 206.373 244.795C193.217 253.328 180.062 261.857 166.906 270.382C161.906 273.608 156.453 275.715 150.533 275.249C137.599 274.355 131.146 260.582 137.693 248.235C141.399 241.289 147.226 236.862 153.519 232.835C172.542 220.648 191.55 208.422 210.546 196.155C213.493 194.262 214.346 191.369 212.773 188.529C211.199 185.689 208.386 185.035 205.306 187.008C193.786 194.368 182.359 201.875 170.799 209.168C159.493 216.302 148.239 223.582 136.626 230.168C128.652 234.897 119.55 237.389 110.279 237.382C106.15 237.517 102.121 236.089 98.9994 233.382C93.6661 228.569 93.1194 222.342 94.7461 215.782C96.6697 207.086 101.67 199.377 108.826 194.075C130.559 178.075 152.173 161.982 173.973 146.075C195.306 130.595 216.733 115.409 238.066 99.9952C240.026 98.5819 241.479 98.1419 243.506 99.8352C245.506 101.333 247.604 102.696 249.786 103.915Z" fill="white"/>
<path d="M111.452 179.489C114.519 173.382 117.199 168.009 119.905 162.662C129.612 143.435 139.332 124.222 149.065 105.022C157.181 88.9689 165.31 72.92 173.452 56.8756C174.007 55.7594 174.879 54.8318 175.959 54.2089C190.199 46.9423 204.585 39.9822 218.705 32.4889C221.799 30.6707 225.307 29.6756 228.895 29.5986C232.482 29.5216 236.03 30.3653 239.199 32.0489C254.578 39.5111 268.799 49.1525 281.425 60.6756C286.199 64.9689 290.545 69.8089 295.105 74.3822C302.385 81.6889 304.625 90.3821 301.492 100.435C298.825 109.182 295.612 117.769 292.639 126.449C288.87 137.427 285.088 148.391 281.292 159.342C281.208 159.609 281.11 159.872 280.999 160.129C276.999 168.929 276.345 169.662 267.959 163.889C261.292 159.262 258.332 151.889 256.985 143.889C254.692 130.169 257.225 116.875 260.399 103.662C260.852 101.756 261.399 99.8622 261.732 98.5022L239.399 84.6755C229.799 96.9555 215.985 103.996 203.692 113.022C173.719 135.062 143.425 156.609 113.265 178.355C112.932 178.622 112.559 178.822 111.452 179.489Z" fill="white"/>
<path d="M351.012 230.662C358.879 230.795 364.719 234.835 368.879 241.502C373.879 249.502 378.452 257.862 383.439 265.902C384.19 266.986 384.654 268.244 384.787 269.557C384.92 270.87 384.718 272.195 384.199 273.408C379.932 285.408 366.679 292.728 355.372 288.982C354.009 288.542 352.81 287.701 351.932 286.568C346.27 278.195 340.693 269.751 335.199 261.235C329.866 252.982 330.813 242.368 337.239 236.088C339.023 234.265 341.172 232.838 343.546 231.903C345.919 230.968 348.464 230.545 351.012 230.662Z" fill="white"/>
<path d="M327.599 312.927C322.882 312.778 318.285 311.399 314.265 308.927C313.84 308.749 313.468 308.465 313.185 308.1C309.519 301.247 304.372 295.18 302.665 287.274C301.814 283.948 301.69 280.478 302.302 277.1C302.914 273.722 304.248 270.516 306.212 267.701C312.105 259.327 321.612 260.901 326.945 267.874C332.892 275.634 337.959 284.154 343.305 292.407C343.874 293.452 344.146 294.632 344.092 295.82C343.999 306.42 337.599 312.94 327.599 312.927Z" fill="white"/>
<path d="M377.799 230.341C377.799 222.181 382.132 215.474 388.612 213.554C390.568 212.977 392.622 212.809 394.645 213.061C396.668 213.314 398.618 213.981 400.372 215.021C407.86 219.013 413.572 225.677 416.372 233.687C417.479 236.644 417.839 239.828 417.417 242.957C416.996 246.086 415.808 249.062 413.959 251.621C410.086 257.365 404.266 261.514 397.572 263.301C395.319 263.941 393.825 263.501 392.505 261.127C388.799 254.461 384.585 248.141 380.985 241.434C379.199 238.101 378.319 234.234 376.985 230.594L377.799 230.341Z" fill="white"/>
<path d="M288.866 337.287C283.892 337.914 280.252 334.914 276.959 331.26C270.612 324.234 267.332 316.127 269.386 306.287C271.666 295.367 280.986 290.874 290.532 296.154C294.249 298.05 297.279 301.062 299.199 304.767C299.757 305.947 300.417 307.076 301.172 308.14C306.666 315.314 304.719 322.607 301.292 329.74C298.666 335.34 295.026 337.287 288.866 337.287Z" fill="white"/>
</svg>
