<svg width="188" height="190" viewBox="0 0 188 190" fill="none" xmlns="http://www.w3.org/2000/svg">
<path d="M160.718 28.4851L176.465 11.8855C180.131 30.8055 183.771 49.5119 187.411 68.3119C185.411 67.9653 183.505 67.6052 181.598 67.2852C178.211 66.7252 174.811 66.1922 171.425 65.6056C169.051 65.1922 166.691 64.6989 164.318 64.2722C161.158 63.7389 157.985 63.272 154.825 62.7253C152.425 62.3254 150.051 61.8054 147.665 61.392C144.518 60.8454 141.371 60.3785 138.225 59.8451C136.211 59.4985 134.225 59.085 132.091 58.685L146.225 43.7117C138.822 35.8018 129.697 29.7026 119.558 25.8855C100.705 18.8589 81.8647 19.2188 63.6647 27.7788C25.7847 45.6721 13.7847 85.952 25.278 118.672C32.5714 139.432 46.4247 154.232 66.6113 162.565C86.6113 170.818 106.478 169.672 126.051 160.525L137.465 178.178C126.973 184.003 115.377 187.565 103.425 188.632C75.4246 191.112 50.6514 182.965 29.9847 163.485C13.5085 148.171 3.18332 127.374 0.944712 104.992C-2.04195 78.7123 4.79816 55.0587 21.3981 34.6987C38.9848 13.1254 61.9447 1.43219 89.598 0.192189C117.251 -1.04781 140.878 8.79182 160.718 28.4851Z" fill="black"/>
<path d="M130.371 101.764H136.438C136.438 102.084 136.504 102.338 136.504 102.605C136.504 105.618 136.504 108.632 136.504 111.658C136.504 112.325 136.344 112.591 135.624 112.578C134.211 112.578 132.798 112.578 131.384 112.578H130.384V114.858C130.384 117.245 130.384 119.618 130.384 122.005C130.384 122.591 130.224 122.778 129.624 122.778C125.718 122.778 121.824 122.778 117.918 122.778C117.304 122.778 117.104 122.618 117.104 121.978C117.104 119.151 117.104 116.311 117.104 113.484C117.104 112.698 116.864 112.511 116.131 112.511C109.184 112.511 102.238 112.511 95.3044 112.511C94.4378 112.511 94.1044 112.311 93.9711 111.378C93.5711 108.604 93.0378 105.844 92.6378 103.071C92.5911 102.808 92.6433 102.538 92.7844 102.311C95.2244 98.7512 97.6911 95.2178 100.144 91.6445L111.344 75.5111C112.931 73.2177 114.518 70.9249 116.131 68.6582C116.213 68.5359 116.32 68.4311 116.443 68.3509C116.567 68.2707 116.706 68.2166 116.851 68.1914C121.296 68.1914 125.74 68.1914 130.184 68.1914C130.258 68.2042 130.33 68.2263 130.398 68.2578L130.371 101.764ZM106.371 101.764H116.838C117.358 101.764 117.318 101.405 117.318 101.058C117.318 96.2446 117.318 91.4315 117.198 86.6315C117.198 86.5115 117.198 86.3909 117.104 86.0443L106.371 101.764Z" fill="black"/>
<path d="M70.5718 110.832H89.985C89.985 111.165 89.985 111.418 89.985 111.672C89.985 115.098 89.985 118.512 89.985 121.925C89.985 122.618 89.7983 122.805 89.105 122.805C77.2916 122.805 65.4784 122.805 53.665 122.805C52.9184 122.805 52.7583 122.578 52.7583 121.872C52.7583 118.738 52.7583 115.618 52.7583 112.538C52.7583 112.182 52.8754 111.835 53.0916 111.552C55.665 109.005 58.2651 106.485 60.8517 103.952C64.5584 100.338 68.3183 96.7782 71.9583 93.0982C73.5796 91.6525 74.805 89.8167 75.5184 87.7649C76.1184 85.6582 76.145 83.5517 74.4917 81.8984C73.7442 81.1811 72.8173 80.6786 71.8083 80.4439C70.7993 80.2093 69.7455 80.2512 68.7583 80.565C66.2811 81.3397 64.0663 82.7838 62.3584 84.7382L60.4517 86.5117L52.3184 77.6451C54.4227 74.9968 56.9774 72.74 59.8651 70.9785C61.5084 69.9958 63.2629 69.2125 65.0916 68.6451C68.0239 67.8659 71.0727 67.6219 74.0916 67.9251C77.4929 68.1298 80.7644 69.3052 83.5184 71.3118C85.1076 72.4692 86.4497 73.9324 87.4663 75.6152C88.4828 77.298 89.1532 79.1667 89.4383 81.1119C89.9939 83.9735 89.8409 86.9272 88.9926 89.7161C88.1444 92.505 86.6266 95.0443 84.5718 97.1119C81.3318 100.539 77.905 103.779 74.4917 107.085C73.2784 108.285 72.0383 109.432 70.8117 110.605C70.825 110.512 70.7584 110.605 70.5718 110.832Z" fill="black"/>
<path d="M185.532 113.018C181.238 111.938 177.012 110.872 172.785 109.832C170.612 109.298 168.425 108.818 166.239 108.338C166.137 108.328 166.039 108.296 165.951 108.244C165.863 108.193 165.788 108.123 165.73 108.039C165.671 107.956 165.632 107.86 165.614 107.76C165.596 107.66 165.6 107.557 165.625 107.458C165.825 105.871 166.118 104.312 166.265 102.725C166.412 101.138 166.425 99.458 166.505 97.818C166.505 96.9514 166.652 96.0851 166.638 95.2184C166.638 94.1384 166.638 93.0582 166.492 91.9782C166.492 91.4049 166.652 91.165 167.252 91.165C173.714 91.165 180.181 91.165 186.652 91.165C187.092 91.165 187.332 91.3113 187.372 91.7646C187.372 91.978 187.465 92.1783 187.465 92.3916C187.278 96.2316 187.185 100.071 186.878 103.898C186.652 106.685 186.145 109.431 185.745 112.205C185.697 112.481 185.626 112.753 185.532 113.018Z" fill="black"/>
<path d="M156.878 132.671C158.705 128.485 160.491 124.431 162.211 120.378C162.398 119.951 162.585 119.831 163.038 120.018C165.171 120.907 167.309 121.77 169.451 122.605C172.731 123.938 176.025 125.165 179.305 126.445C180.038 126.738 180.758 127.085 181.571 127.445C180.851 129.218 180.238 130.938 179.451 132.618C177.645 136.762 175.546 140.772 173.171 144.618C172.851 145.138 172.678 145.191 172.171 144.791C168.078 141.525 163.945 138.312 159.825 135.085L156.878 132.671Z" fill="black"/>
<path d="M149.198 170.818L146.158 166.125C143.491 162.125 140.931 158.019 138.291 153.992C137.878 153.352 137.851 153.045 138.531 152.499C141.666 150.097 144.58 147.419 147.238 144.499C147.313 144.422 147.393 144.351 147.478 144.285L163.478 157.779C159.171 162.597 154.386 166.965 149.198 170.818Z" fill="black"/>
</svg>
