<svg width="491" height="557" viewBox="0 0 491 557" fill="none" xmlns="http://www.w3.org/2000/svg">
<path d="M490.48 472.908C417.146 548.681 289.64 584.334 171.32 532.694C52.6534 480.921 -14.6666 359.589 3.49342 234.269C22.5067 102.935 125.48 21.3089 216.627 0.935547C166.333 53.8422 138.12 115.122 135.12 186.788C132.12 258.455 153.787 322.269 199.653 377.762C265.667 457.549 374.773 499.868 490.48 472.908Z" fill="black"/>
<path d="M271.613 169.748C268.84 158.574 272.347 150.162 279.24 141.655C300.093 115.909 320.12 89.5221 341.173 62.4821H279.707V32.1084H397.04C396.68 41.5884 398.92 50.6417 391.573 59.7217C371.493 84.5616 352.547 110.322 333.16 135.722C332.587 136.482 332.067 137.268 330.76 139.108H396.907V169.775L271.613 169.748Z" fill="black"/>
<path d="M423.186 213.589H373.093V188.801H469.093C469.493 197.641 469.866 205.401 463.399 213.187C447.946 231.854 433.76 251.429 419.066 270.642C417.906 272.162 416.786 273.721 415.066 276.161H468.919V301.228H366.36C365.413 293.788 365.653 287.388 370.973 280.881C387.533 260.601 403.279 239.681 419.333 219.001C420.333 217.615 421.333 216.149 423.186 213.589Z" fill="black"/>
<path d="M357.493 346.122H318.32V326.748H392.626C393.533 333.521 393.746 339.522 388.893 345.536C376.213 361.269 364.213 377.535 351.2 394.575H392.759V414.335H313.586C312.426 408.509 312.6 403.508 316.706 398.402C330.253 381.548 343.333 364.348 357.493 346.122Z" fill="black"/>
</svg>
