<svg width="592" height="492" viewBox="0 0 592 492" fill="none" xmlns="http://www.w3.org/2000/svg">
<path d="M0.159815 491.59C0.102327 491.299 0.102327 491 0.159815 490.71C28.5331 416.932 56.9287 343.154 85.3464 269.376C86.1597 269.283 86.8131 269.162 87.4797 269.135C88.4531 269.135 89.4397 269.135 90.4131 269.135H219C220.19 269.242 221.39 269.171 222.56 268.923C222.413 267.917 222.009 266.966 221.386 266.163C215.653 256.003 209.902 245.852 204.133 235.71C198.853 226.403 193.569 217.105 188.28 207.817C180.247 193.723 174.797 178.306 172.186 162.296C170.112 149.595 169.807 136.668 171.28 123.883C176.986 73.3097 210.96 29.2164 259.28 10.2698C270.237 5.94682 281.697 3.02523 293.386 1.57576C302.058 0.498141 310.81 0.212986 319.533 0.722895C338.382 1.78915 356.828 6.61206 373.786 14.9091C392.382 23.9603 408.736 37.0289 421.667 53.1695C434.598 69.3101 443.783 88.1199 448.56 108.242C451.654 121.336 452.786 134.816 451.919 148.242C450.563 169.971 444.119 191.076 433.106 209.856C422.199 228.696 411.453 247.643 400.653 266.55C400.266 267.203 399.973 267.883 399.52 268.842C400.23 268.97 400.946 269.06 401.666 269.109H415.213C415.799 269.143 416.387 269.143 416.973 269.109C417.557 269.053 418.145 269.164 418.669 269.428C419.193 269.693 419.631 270.1 419.933 270.603C425.08 277.27 430.28 283.936 435.466 290.603C486.862 356.656 538.262 422.704 589.666 488.749C590.415 489.462 591.006 490.326 591.399 491.282C591.293 491.509 591.279 491.616 591.199 491.682C591.122 491.738 591.028 491.767 590.933 491.763C394.293 491.763 197.644 491.763 0.986475 491.763C0.705574 491.734 0.428481 491.677 0.159815 491.59ZM310.826 60.0822C302.177 60.0684 293.584 61.4696 285.386 64.2294C268.295 69.9471 253.706 81.3978 244.091 96.6408C234.475 111.884 230.425 129.983 232.626 147.87C233.896 158.219 237.262 168.2 242.52 177.203C247.807 186.213 254.824 194.088 263.167 200.376C271.509 206.665 281.012 211.242 291.13 213.844C301.247 216.446 311.78 217.022 322.121 215.539C332.462 214.056 342.408 210.544 351.386 205.203C366.611 196.215 378.316 182.305 384.57 165.768C390.824 149.232 391.253 131.056 385.786 114.242C380.608 98.4475 370.56 84.699 357.084 74.9689C343.607 65.2388 327.395 60.0271 310.773 60.0822H310.826ZM151.333 433.096C184.08 438.51 216.56 443.882 249.04 449.229L346.653 465.376C347.253 464.67 347.813 464.042 348.413 463.349L385.146 423.163L396.466 410.789C396.84 410.376 397.413 410.002 396.933 409.176L330.613 392.59C330.226 392.509 329.834 392.456 329.44 392.43C329.347 392.416 329.252 392.416 329.16 392.43L328.653 392.616C328.2 393.363 327.626 394.269 327.093 395.189C322.115 403.864 317.146 412.545 312.186 421.229C311.773 421.936 311.586 422.896 310.533 423.256C309.973 422.336 309.413 421.416 308.88 420.496C301.955 408.292 295.048 396.087 288.16 383.883C287.788 383.156 287.254 382.525 286.6 382.038C285.946 381.55 285.189 381.218 284.386 381.069C260.991 375.282 237.604 369.457 214.226 363.59L184.893 356.257C183.877 355.855 182.77 355.74 181.693 355.923C171.573 381.563 161.48 407.163 151.333 433.096ZM60.2531 417.723C60.541 417.924 60.855 418.086 61.1864 418.203C86.1331 422.296 111.066 426.496 136.066 430.549C136.373 429.963 136.64 429.549 136.813 429.109L167 352.216C166.73 351.989 166.429 351.8 166.106 351.656C142.053 345.63 117.995 339.612 93.9331 333.603C93.5657 333.556 93.1938 333.556 92.8264 333.603C91.5864 335.816 62.7598 410.149 60.2531 417.723ZM535.173 465.723C534.799 465.149 534.626 464.803 534.386 464.496C527.946 456.216 521.479 447.95 515.079 439.643C514.279 438.648 513.14 437.983 511.879 437.776C507.413 436.683 502.946 435.549 498.479 434.443L416.093 414.003C415.24 413.789 414.386 413.656 413.426 413.456C412.653 414.269 411.919 415.043 411.199 415.829L385.786 443.616C379.564 450.416 373.342 457.225 367.12 464.043C366.653 464.563 365.853 464.976 366.053 465.923C369.226 466.176 532.573 466.123 535.173 465.763V465.723ZM366.12 326.99C355.64 345.256 345.28 363.363 334.96 381.483C334.777 381.887 334.63 382.306 334.52 382.736C342.52 384.909 350.373 386.736 358.213 388.736C366.053 390.736 374.213 392.736 382.213 394.71C390.213 396.683 397.92 398.709 405.786 400.496C406.48 399.803 407.053 399.269 407.573 398.695C420.533 384.473 433.488 370.278 446.439 356.109C446.492 356.03 446.524 355.938 446.533 355.842C446.551 355.678 446.551 355.513 446.533 355.349L366.12 326.99ZM205.68 294.99C205.226 296.056 204.8 297.029 204.346 298.016C202.08 303.758 199.822 309.505 197.573 315.257C194.017 324.377 190.435 333.496 186.826 342.616C186.453 343.576 185.733 344.496 186.173 345.842L278.493 368.802C278.653 368.802 278.853 368.723 279.16 368.643C279.079 368.283 278.967 367.931 278.826 367.59C275.253 360.63 238.92 296.923 237.36 294.99H205.68ZM189.133 294.99H185.706H110.666C109.526 294.812 108.359 294.97 107.306 295.443C103.751 304.598 100.155 313.932 96.5197 323.443C97.6664 323.776 98.5731 324.069 99.5064 324.296C103.693 325.349 107.88 326.375 112.066 327.415L169.093 341.669C169.777 341.786 170.467 341.861 171.16 341.896C177.16 326.629 183.093 311.482 189.026 296.349C189.113 295.883 189.149 295.41 189.133 294.936V294.99ZM56.1331 428.15C51.3865 440.51 46.6798 452.762 41.9865 465.016C41.9397 465.294 41.9397 465.577 41.9865 465.855C44.5598 466.215 119.92 466.202 122.413 465.855C123.506 463.109 124.613 460.282 125.72 457.456C126.826 454.629 127.96 452.016 128.96 449.256C129.96 446.496 131.44 443.776 132.013 440.829C130.2 439.949 60.3331 428.55 56.1331 428.096V428.15ZM457.466 365.763C456.434 366.266 455.555 367.034 454.919 367.99C446.706 376.95 438.502 385.918 430.306 394.896C427.786 397.642 425.266 400.376 422.773 403.15C422.452 403.595 422.179 404.072 421.96 404.576C431.079 407.242 500.133 424.309 502.839 424.575C502.787 424.292 502.692 424.019 502.559 423.763L457.466 365.763ZM147.573 443.096C145.533 447.336 139.226 463.722 138.773 465.855C138.933 465.935 139.093 466.082 139.266 466.082C140.146 466.082 141.026 466.082 141.933 466.082L283.773 466.016C283.87 466.006 283.962 465.969 284.04 465.909C284.013 465.789 283.973 465.673 283.92 465.562L147.573 443.096ZM384.72 294.962C380.515 301.536 376.67 308.334 373.2 315.323C375.426 316.496 432.066 336.469 434.733 337.003C434.471 336.181 434.013 335.435 433.399 334.829C423.622 322.207 413.808 309.59 403.96 296.977C403.666 296.59 403.346 296.229 403.04 295.829C402.84 295.552 402.575 295.329 402.268 295.18C401.96 295.031 401.621 294.961 401.28 294.977C399.946 294.977 398.72 294.977 397.453 294.977L384.72 294.962Z" fill="black"/>
</svg>
