<svg width="417" height="504" viewBox="0 0 417 504" fill="none" xmlns="http://www.w3.org/2000/svg">
<path d="M267.573 85.4821C281.867 85.4821 293.453 73.895 293.453 59.6019C293.453 45.3088 281.867 33.7217 267.573 33.7217C253.28 33.7217 241.693 45.3088 241.693 59.6019C241.693 73.895 253.28 85.4821 267.573 85.4821Z" fill="#030104"/>
<path d="M345.986 85.4821C360.28 85.4821 371.867 73.895 371.867 59.6019C371.867 45.3088 360.28 33.7217 345.986 33.7217C331.693 33.7217 320.106 45.3088 320.106 59.6019C320.106 73.895 331.693 85.4821 345.986 85.4821Z" fill="#030104"/>
<path d="M385.333 0.508255H31.3598C23.2493 0.444182 15.4437 3.59646 9.65136 9.27387C3.859 14.9513 0.551612 22.691 0.453125 30.8012L2.25309 470.268C2.2672 479.2 5.8217 487.761 12.1374 494.077C18.453 500.393 27.0147 503.947 35.9464 503.961H380.68C389.617 503.954 398.187 500.403 404.511 494.087C410.834 487.771 414.395 479.206 414.413 470.268L416.2 30.8012C416.163 26.7851 415.335 22.8164 413.764 19.1202C412.193 15.424 409.909 12.0728 407.043 9.25955C404.176 6.44635 400.784 4.22603 397.058 2.7244C393.333 1.22277 389.349 0.469554 385.333 0.508255ZM392 470.309C391.989 473.283 390.8 476.131 388.693 478.231C386.587 480.33 383.734 481.508 380.759 481.508H35.9731C32.999 481.508 30.1461 480.33 28.0394 478.231C25.9326 476.131 24.7438 473.283 24.7332 470.309V125.495C24.735 123.356 25.3517 121.262 26.5101 119.463C27.6684 117.664 29.3193 116.235 31.2664 115.348H385.426C387.376 116.231 389.03 117.659 390.189 119.459C391.348 121.259 391.963 123.354 391.96 125.495V470.309H392ZM393.786 86.7881C393.72 88.5544 393.07 90.2491 391.939 91.6072C390.807 92.9652 389.258 93.91 387.533 94.2947H29.1999C27.4658 93.9254 25.9059 92.9851 24.7697 91.6241C23.6335 90.2631 22.9867 88.5602 22.9331 86.7881V30.7882C23.0164 28.6353 23.9506 26.6033 25.5304 25.1384C27.1103 23.6736 29.2068 22.8964 31.3598 22.9757H385.333C387.48 22.9036 389.568 23.6844 391.14 25.1489C392.712 26.6133 393.64 28.6413 393.72 30.7882V86.7881H393.786Z" fill="#030104"/>
<path d="M208.333 147.121C178.517 147.126 149.371 155.973 124.583 172.542C99.7937 189.111 80.4745 212.659 69.0679 240.207C57.6614 267.755 54.6796 298.067 60.4997 327.31C66.3199 356.553 80.6805 383.413 101.766 404.495C122.851 425.576 149.714 439.931 178.958 445.746C208.201 451.561 238.513 448.574 266.059 437.163C293.605 425.751 317.149 406.428 333.714 381.637C350.278 356.845 359.119 327.698 359.119 297.881C359.112 257.895 343.223 219.548 314.946 191.276C286.668 163.004 248.319 147.121 208.333 147.121ZM329.426 303.121C329.426 335.226 316.672 366.017 293.971 388.719C271.269 411.42 240.478 424.174 208.373 424.174C176.268 424.174 145.477 411.42 122.775 388.719C100.074 366.017 87.3197 335.226 87.3197 303.121C87.3197 236.241 106.613 264.748 208.36 327.601C310.106 390.455 329.426 236.148 329.426 303.055V303.121Z" fill="#030104"/>
</svg>
